<?xml version="1.0" encoding="utf-8"?>
<!DOCTYPE svg PUBLIC "-//W3C//DTD SVG 1.1//EN" "http://www.w3.org/Graphics/SVG/1.1/DTD/svg11.dtd">
<svg version="1.1" id="图形" xmlns="http://www.w3.org/2000/svg" xmlns:xlink="http://www.w3.org/1999/xlink" x="0px" y="0px" width="1024px" height="1024px" viewBox="0 0 1024 1024" enable-background="new 0 0 1024 1024" xml:space="preserve">
  <path fill="#939699" d="M232.338602 657.612771 232.338602 747.184809l47.072085 0 0-89.572038c0-12.977569-10.558473-23.536043-23.536043-23.536043S232.338602 644.635201 232.338602 657.612771zM767.527744 634.076728c12.978593 0 23.536043 10.558473 23.536043 23.536043L791.063787 747.184809l-47.072085 0 0-89.572038C743.991702 644.635201 754.549152 634.076728 767.527744 634.076728zM735.933165 192.770813l-112.563682 0 0-112.563682 112.563682 0L735.933165 192.770813zM568.281841 192.770813l-112.563682 0 0-112.563682 112.563682 0L568.281841 192.770813zM568.281841 356.499805l-112.563682 0 0-112.563682 112.563682 0L568.281841 356.499805zM735.933165 356.499805l-112.563682 0 0-112.563682 112.563682 0L735.933165 356.499805zM400.630517 356.499805l-112.563682 0 0-112.563682 112.563682 0L400.630517 356.499805zM959.184809 583.455817l0-566.911634c0-90.425476-73.303516-163.728992-163.728992-163.728992l-566.911634 0c-90.425476 0-163.728992 73.303516-163.728992 163.728992l0 566.911634c0 72.444962 47.054689 133.89143 112.264876 155.466817l0-81.309864c0-43.447535 35.347043-78.794577 78.794577-78.794577s78.794577 35.347043 78.794577 78.794577L334.669222 747.184809l354.063945 0 0-89.572038c0-43.447535 35.347043-78.794577 78.794577-78.794577s78.794577 35.347043 78.794577 78.794577L846.322321 739.117063C911.841547 717.71973 959.184809 656.121813 959.184809 583.455817zM849.691045 466.803004l-675.382091 0 0-420.37828c0-44.75839 36.283368-81.041758 81.041758-81.041758l513.298576 0c44.75839 0 81.041758 36.283368 81.041758 81.041758L849.691045 466.803004zM400.630517 192.770813l-112.563682 0 0-112.563682 112.563682 0L400.630517 192.770813z" transform="translate(0, 812) scale(1, -1)"/>
</svg>
