<?xml version="1.0" encoding="utf-8"?>
<!-- Generator: Adobe Illustrator 18.0.0, SVG Export Plug-In . SVG Version: 6.00 Build 0)  -->
<!DOCTYPE svg PUBLIC "-//W3C//DTD SVG 1.1//EN" "http://www.w3.org/Graphics/SVG/1.1/DTD/svg11.dtd">
<svg version="1.1" id="图层_1" xmlns="http://www.w3.org/2000/svg" xmlns:xlink="http://www.w3.org/1999/xlink" x="0px" y="0px"
	 viewBox="0 0 166 48" enable-background="new 0 0 166 48" xml:space="preserve">
<g>
	<path fill="#FFFFFF" d="M134.418,6.693h14.721v2.914h5.257V6.155c-0.002-0.008-0.002-0.011-0.002-0.021
		c0-0.776-0.608-1.404-1.362-1.417h-8.509V2h-5.502v2.717h-9.862v4.89h5.257V6.693L134.418,6.693z M134.418,6.693"/>
	<path fill="#FFFFFF" d="M102.569,2.251L97.179,15h4.135v15.17h4.522V10.048h-1.637l3.406-7.796H102.569z M102.569,2.251"/>
	<path fill="#FFFFFF" d="M155,29.473l-1.652-5.579c-0.108-0.356-0.432-0.614-0.814-0.615h-4.377l1.268,4.285h-5.146v-8.3h10.106
		v-1.977h-10.106v-3.906h10.106v-1.976h-25.224v1.976h10.105v3.906h-10.105v1.977h10.105v8.3h-10.105v1.977H155l-0.021-0.068
		L155,29.473L155,29.473z M155,29.473"/>
	<path fill="#FFFFFF" d="M114.133,12.701c-0.172-0.35-0.523-0.592-0.93-0.595h-3.914l3.048,9.603h4.632L114.133,12.701
		L114.133,12.701z M114.133,12.701"/>
	<path fill="#FFFFFF" d="M124.043,2.483h-4.699v4.91h-11.582v1.976h11.582v17.653c-0.04,0.403-0.359,0.719-0.759,0.74h-2.387v2.046
		h6.09c0.963-0.041,1.735-0.841,1.756-1.831V9.37h1.908V7.394h-1.908V2.483L124.043,2.483z M124.043,2.483"/>
	<path fill="#FFFFFF" d="M94.72,11.429h-9.027V8.194h10.467V6.179H85.692V2.08l-4.667,0.001c-0.511,0-0.925,0.427-0.925,0.956v3.142
		H69.708v2.015h10.393v3.235h-8.772v2.014h17.473c0,0-0.968,3.78-5.761,7.843c-4.294-3.251-5.73-5.84-5.73-5.84h-4.687
		c1.896,3.287,4.591,5.919,7.493,8.007c-2.665,1.732-6.122,3.402-10.592,4.737v2.413c0,0,6.896-1.301,13.561-5.228
		c6.675,3.896,13.379,5.228,13.379,5.228v-2.284c-4.29-1.562-7.69-3.279-10.36-4.937C89.973,20.519,93.361,16.63,94.72,11.429
		L94.72,11.429z M94.72,11.429"/>
	<path fill="#FFFFFF" d="M79.904,43.643L80.685,46h2.188l-4.309-11.7h-1.673L72.598,46h2.189l0.814-2.357H79.904L79.904,43.643z
		 M77.788,37.315l1.618,4.852h-3.295L77.788,37.315L77.788,37.315z M77.788,37.315"/>
	<path fill="#FFFFFF" d="M89.776,34.3V46h7.084v-1.593H91.88V34.3H89.776z M89.776,34.3"/>
	<path fill="#FFFFFF" d="M104.579,34.3h2.106v11.699h-2.106V34.3L104.579,34.3z M104.579,34.3"/>
	<path fill="#FFFFFF" d="M119.764,34.3h-4.547V46h2.104v-4.497h2.443c2.269,0,3.854-1.481,3.854-3.601
		C123.618,35.782,122.033,34.3,119.764,34.3 M119.646,39.895h-2.325v-4.003h2.325c1.167,0,1.865,1.021,1.865,2.01
		C121.511,38.868,120.858,39.895,119.646,39.895L119.646,39.895z M119.646,39.895"/>
	<path fill="#FFFFFF" d="M135.976,43.643l0.78,2.357h2.188l-4.31-11.7h-1.672L128.67,46h2.19l0.812-2.357H135.976L135.976,43.643z
		 M133.86,37.315l1.618,4.852h-3.295L133.86,37.315L133.86,37.315z M133.86,37.315"/>
	<path fill="#FFFFFF" d="M150.668,34.3l-2.296,4.985l-2.33-4.985h-2.275l3.543,6.894V46h2.089v-4.806l0.013-0.026l3.53-6.868
		H150.668z M150.668,34.3"/>
</g>
<path fill="#FFFFFF" d="M23.191,26.074c-1.2,0.119-3.451,0.65-4.682,1.739c-3.691,3.216-1.483,9.1,5.985,9.1
	c4.34,0,8.678-2.776,12.085-7.218C31.734,27.329,27.627,25.636,23.191,26.074L23.191,26.074z M23.191,26.074 M51.045,30.139
	c6.912,2.315,8.48,2.439,8.48,2.439V7.69c0-4.248-3.438-7.69-7.686-7.69H19.214c-4.249,0-7.689,3.442-7.689,7.69v32.622
	c0,4.246,3.44,7.689,7.689,7.689h32.625c4.248,0,7.686-3.442,7.686-7.689v-0.315c0,0-12.485-5.205-18.79-8.236
	c-4.228,5.201-9.683,8.36-15.345,8.36c-9.577,0-12.83-8.381-8.295-13.898c0.989-1.201,2.671-2.35,5.282-2.995
	c4.083-1.003,10.583,0.627,16.673,2.637c1.095-2.019,2.017-4.24,2.704-6.607H22.982v-1.902h9.679v-3.408H20.938v-1.903h11.723V7.183
	c0,0,0-0.82,0.83-0.82h4.73v5.681h11.591v1.903H38.221v3.408h9.461c-0.905,3.708-2.281,7.122-4.006,10.119
	C46.547,28.512,49.125,29.497,51.045,30.139L51.045,30.139z M51.045,30.139"/>
</svg>
