<?xml version="1.0" encoding="utf-8"?>
<!-- Generator: Adobe Illustrator 18.0.0, SVG Export Plug-In . SVG Version: 6.00 Build 0)  -->
<!DOCTYPE svg PUBLIC "-//W3C//DTD SVG 1.1//EN" "http://www.w3.org/Graphics/SVG/1.1/DTD/svg11.dtd">
<svg version="1.1" id="图层_1" xmlns="http://www.w3.org/2000/svg" xmlns:xlink="http://www.w3.org/1999/xlink" x="0px" y="0px"
	 viewBox="0 0 166 48" enable-background="new 0 0 166 48" xml:space="preserve">
<g>
	<path fill="#FFFFFF" d="M99.244,19.722h13.913v1.176H99.244V19.722L99.244,19.722z M99.244,19.722"/>
	<path fill="#FFFFFF" d="M99.244,23.642h13.913v1.273H99.244V23.642L99.244,23.642z M99.244,23.642"/>
	<path fill="#FFFFFF" d="M99.599,35.855h13.203v-7.494H99.599V35.855L99.599,35.855z M111.53,34.68h-10.656v-5.142h10.656V34.68
		L111.53,34.68z M111.53,34.68"/>
	<path fill="#FFFFFF" d="M96.206,12.474c-1.242,4.375-3.004,8.228-5.29,11.559c0,0,0.002,0.003,0.003,0.004l0.695,1.206
		c0.811-1.2,1.624-2.551,2.437-4.05V35.94h1.274V18.547c0.806-1.736,1.492-3.535,2.063-5.39L96.206,12.474L96.206,12.474z
		 M96.206,12.474"/>
	<path fill="#FFFFFF" d="M106.299,15.704l1-0.576c-0.196-0.456-1.032-2.165-1.292-2.752l-1.175,0.679
		c0.417,0.785,0.811,1.57,1.174,2.355c0.064,0.131,0.097,0.229,0.097,0.293h-8.231v1.274h16.755v-1.274L106.299,15.704
		L106.299,15.704z M106.299,15.704"/>
	<path fill="#FFFFFF" d="M74.879,12.816h1.176v6.271h2.451v-4.41h1.176v5.586h-8.525v-5.586h1.176v4.41h2.547V12.816z
		 M74.879,12.816"/>
	<path fill="#FFFFFF" d="M71.548,22.81h7.545v1.176h-7.545V22.81L71.548,22.81z M71.548,22.81"/>
	<path fill="#FFFFFF" d="M80.165,29.631l-1.954,1.676v-4.774h-6.369v1.861c0.184,2.636-0.466,4.495-1.95,5.577l0.68,1.18
		c1.825-1.503,2.674-3.59,2.543-6.267V27.71h3.919v2.841c-0.048,0.964-0.095,1.285-0.44,1.762l0.736,1.273
		c0.652-0.523,1.794-1.5,3.423-2.934L80.165,29.631L80.165,29.631z M80.165,29.631"/>
	<path fill="#FFFFFF" d="M69.366,12.573c-1.216,2.483-2.682,4.53-4.398,6.139l0.716,1.242c1.952-1.956,3.547-4.204,4.784-6.744
		L69.366,12.573L69.366,12.573z M69.366,12.573"/>
	<path fill="#FFFFFF" d="M69.197,18.989c-1.169,2.922-2.695,5.456-4.573,7.604l0.681,1.181c0.774-0.904,1.515-1.84,2.226-2.808
		V35.94h1.176V23.006c0.577-1.023,1.12-2.144,1.636-3.358L69.197,18.989L69.197,18.989z M69.197,18.989"/>
	<path fill="#FFFFFF" d="M88.885,18.301v-1.176H83.3c0.475-1.43,1.045-3.138,1.234-4.603L83.3,12.521
		c-0.82,3.844-2.035,7.078-3.645,9.706l0.743,1.288c0.13-0.259,0.311-0.621,0.55-1.099c0.26-0.456,0.457-0.816,0.589-1.078
		c0.392,3.462,1.078,6.206,2.057,8.229c-0.935,1.62-2.35,3.268-4.232,4.946l0.707,1.225c2.022-1.895,3.394-3.525,4.113-4.897
		c0.849,1.534,2.291,3.348,3.888,4.97l0.717-1.242c-1.672-1.597-3.121-3.366-3.918-4.904c1.435-2.611,2.318-6.401,2.645-11.366
		H88.885L88.885,18.301z M84.28,28.198c-0.849-2.156-1.469-5.062-1.861-8.72c0.131-0.392,0.294-0.784,0.49-1.176h3.429
		C86.076,22.483,85.391,25.782,84.28,28.198"/>
	<path fill="#FFFFFF" d="M155.925,29.833c-0.856-1.691-2.619-4.623-4.046-6.763l1.064-0.528c1.452,2.14,3.242,4.993,4.098,6.579
		L155.925,29.833L155.925,29.833z M155.925,29.833"/>
	<path fill="#FFFFFF" d="M140.08,35.718l0.336-1.109c-3.992-0.598-7.451-1.736-10.345-3.429c3.114-2.06,5.629-4.781,7.185-8.401
		l-0.83-0.555l-0.259,0.053h-6.718v-4.651h10.194v-1.268h-10.194V12h-1.244v4.359h-10.168v1.268h10.168v4.651h-6.918v1.242
		c1.478,3.118,3.754,5.68,6.477,7.609c-3.06,1.725-6.662,2.845-10.374,3.537l0.362,1.183c0.008,0.019,0.02,0.046,0.027,0.062
		c3.969-0.793,7.833-2.06,11.126-3.989c3.087,1.928,6.821,3.223,11.127,3.883C140.046,35.779,140.064,35.746,140.08,35.718
		 M122.757,23.519h12.657c-1.452,2.932-3.708,5.178-6.483,6.949C126.258,28.644,124.157,26.346,122.757,23.519"/>
	<path fill="#FFFFFF" d="M149.208,12.184c-1.536,4.156-4.003,8.151-6.662,10.848l0.53,1.344c0.011,0.021,0.03,0.049,0.038,0.068
		c1.114-1.109,2.151-2.43,3.137-3.883v15.324h1.246V18.605c1.116-1.903,2.101-3.936,2.905-6.051L149.208,12.184L149.208,12.184z
		 M149.208,12.184"/>
	<path fill="#FFFFFF" d="M162.099,17.971v-5.654h-1.246v5.654h-10.866v1.268h10.866v14.69c0,0.607-0.207,0.766-0.804,0.818
		c-0.473,0.022-0.983,0.134-2.334,0.142l0.004,1.109c1.839,0.011,2.459-0.021,3.159-0.221c0.83-0.211,1.219-0.634,1.219-1.876
		V19.239h3.501v-1.268H162.099L162.099,17.971z M162.099,17.971"/>
</g>
<path fill="#FFFFFF" d="M20.26,30.363c-0.246,0.124-0.523,0.196-0.817,0.196c-0.679,0-1.27-0.375-1.581-0.928l-0.118-0.261
	l-4.952-10.866c-0.054-0.118-0.088-0.251-0.088-0.382c0-0.5,0.406-0.907,0.908-0.907c0.204,0,0.391,0.067,0.542,0.181l5.843,4.161
	c0.427,0.279,0.936,0.443,1.486,0.443c0.327,0,0.639-0.061,0.93-0.167L49.897,9.6C44.971,3.794,36.857,0,27.676,0
	C12.652,0,0.473,10.149,0.473,22.669c0,6.831,3.665,12.979,9.399,17.135c0.461,0.329,0.763,0.868,0.763,1.476
	c0,0.202-0.044,0.386-0.096,0.578c-0.458,1.709-1.192,4.444-1.226,4.572c-0.056,0.214-0.145,0.439-0.145,0.663
	c0,0.5,0.406,0.906,0.907,0.906c0.197,0,0.357-0.073,0.523-0.17l5.956-3.437c0.448-0.259,0.922-0.419,1.444-0.419
	c0.278,0,0.546,0.043,0.799,0.121c2.779,0.799,5.776,1.242,8.88,1.242c15.022,0,27.203-10.149,27.203-22.669
	c0-3.792-1.124-7.363-3.099-10.505L20.459,30.248L20.26,30.363L20.26,30.363z M20.26,30.363"/>
</svg>
