<?xml version="1.0" encoding="utf-8"?>
<!-- Generator: Adobe Illustrator 18.0.0, SVG Export Plug-In . SVG Version: 6.00 Build 0)  -->
<!DOCTYPE svg PUBLIC "-//W3C//DTD SVG 1.1//EN" "http://www.w3.org/Graphics/SVG/1.1/DTD/svg11.dtd">
<svg version="1.1" id="图层_2" xmlns="http://www.w3.org/2000/svg" xmlns:xlink="http://www.w3.org/1999/xlink" x="0px" y="0px"
	 viewBox="15.167 -16.333 1000.636 1000.678" enable-background="new 15.167 -16.333 1000.636 1000.678" xml:space="preserve">
<g>
	<path d="M515.491,613.006c-133.096,0-238.578-116.231-243.005-121.178l-7.001-7.822l7.001-7.822
		c4.427-4.947,109.909-121.178,243.005-121.178s238.578,116.231,242.993,121.178l7.001,7.822l-7.001,7.822
		C754.068,496.775,648.587,613.006,515.491,613.006z M297.503,483.994c25.841,25.665,114.633,105.557,217.987,105.557
		c103.537,0,192.18-79.869,217.987-105.534C707.625,458.352,618.845,378.46,515.491,378.46
		C411.953,378.46,323.31,458.33,297.503,483.994z"/>
</g>
<circle cx="515.485" cy="484.006" r="70.283"/>
</svg>
