<?xml version="1.0" standalone="no"?>
<!DOCTYPE svg PUBLIC "-//W3C//DTD SVG 1.1//EN" "http://www.w3.org/Graphics/SVG/1.1/DTD/svg11.dtd" >
<svg xmlns="http://www.w3.org/2000/svg">
<metadata>
Created by FontForge 20120731 at Wed Apr 20 11:02:48 2016
 By admin
</metadata>
<defs>
<font id="iconfont" horiz-adv-x="1024" >
  <font-face 
    font-family="iconfont"
    font-weight="500"
    font-stretch="normal"
    units-per-em="1024"
    panose-1="2 0 6 3 0 0 0 0 0 0"
    ascent="896"
    descent="-128"
    x-height="792"
    bbox="34 -159 960 896"
    underline-thickness="50"
    underline-position="-100"
    unicode-range="U+0078-E666"
  />
<missing-glyph horiz-adv-x="374" 
d="M34 0v682h272v-682h-272zM68 34h204v614h-204v-614z" />
    <glyph glyph-name=".notdef" horiz-adv-x="374" 
d="M34 0v682h272v-682h-272zM68 34h204v614h-204v-614z" />
    <glyph glyph-name=".null" horiz-adv-x="0" 
 />
    <glyph glyph-name="nonmarkingreturn" horiz-adv-x="341" 
 />
    <glyph glyph-name="x" unicode="x" horiz-adv-x="1001" 
d="M281 543q-27 -1 -53 -1h-83q-18 0 -36.5 -6t-32.5 -18.5t-23 -32t-9 -45.5v-76h912v41q0 16 -0.5 30t-0.5 18q0 13 -5 29t-17 29.5t-31.5 22.5t-49.5 9h-133v-97h-438v97zM955 310v-52q0 -23 0.5 -52t0.5 -58t-10.5 -47.5t-26 -30t-33 -16t-31.5 -4.5q-14 -1 -29.5 -0.5
t-29.5 0.5h-32l-45 128h-439l-44 -128h-29h-34q-20 0 -45 1q-25 0 -41 9.5t-25.5 23t-13.5 29.5t-4 30v167h911zM163 247q-12 0 -21 -8.5t-9 -21.5t9 -21.5t21 -8.5q13 0 22 8.5t9 21.5t-9 21.5t-22 8.5zM316 123q-8 -26 -14 -48q-5 -19 -10.5 -37t-7.5 -25t-3 -15t1 -14.5
t9.5 -10.5t21.5 -4h37h67h81h80h64h36q23 0 34 12t2 38q-5 13 -9.5 30.5t-9.5 34.5q-5 19 -11 39h-368zM336 498v228q0 11 2.5 23t10 21.5t20.5 15.5t34 6h188q31 0 51.5 -14.5t20.5 -52.5v-227h-327z" />
    <glyph glyph-name="uniE600" unicode="&#xe600;" 
d="M762 362v112q0 6 -0.5 15t-5.5 36t-13.5 52t-27.5 55t-44 51.5t-66.5 36.5t-92.5 15t-92.5 -15t-67 -36.5t-44 -51.5t-27 -55t-13.5 -52t-5.5 -36.5t-0.5 -14.5v-112h-107v-521h714v521h-107zM548 75v-122h-72v122q-36 22 -36 64q0 31 21 53t51 22t50.5 -22t20.5 -53
q0 -42 -35 -64zM691 363h-358v111q1 15 3 32t12.5 46.5t28 51.5t53 39t82.5 17t82.5 -17t53 -39t28 -51.5t12.5 -46.5t3 -32v-111zM691 363z" />
    <glyph glyph-name="uniE601" unicode="&#xe601;" 
d="M864 36q4 -14 7 -34.5t3 -42t-3.5 -40.5t-9.5 -28q-5 -7 -25 -13.5t-50 -11.5t-67.5 -10t-74 -8.5t-72 -5t-61.5 -1.5t-60 2q-35 2 -71.5 5t-72.5 7t-65.5 8.5t-50.5 9t-26 9.5q-9 7 -13.5 43t3.5 95q5 33 27 50t51 27.5t60.5 18t54.5 23.5q18 11 28.5 22t15 21.5t4.5 22
t-1 26.5q-2 21 -14 32.5t-27 24.5q-8 6 -13.5 17t-9.5 23q-5 12 -9 28q-2 2 -6 7q-3 4 -7 12.5t-8.5 24t-6 27.5t0.5 21q0 11 4 18q0 34 4 68q4 28 13 61t28 59q18 24 38 40t42 25t44.5 12.5t42.5 3.5q23 -2 37 -5.5t22.5 -8.5t15.5 -11l13 -14h18q9 0 17.5 -2.5t16.5 -9
t18 -19.5q22 -29 33 -63.5t16 -65.5q4 -36 5 -71q2 -5 3 -11.5t1.5 -16t-1.5 -24.5q-2 -19 -5.5 -30.5t-8.5 -16.5q-5 -7 -11 -10q-4 -16 -9 -28t-10 -23t-13 -17q-16 -13 -27 -23q-11 -9 -15 -31q-3 -14 -2 -27.5t7.5 -27.5t20.5 -26.5t39 -22.5q23 -9 49.5 -16t51.5 -16.5
t44.5 -24t26.5 -37.5v0zM552 68q3 6 0.5 12t-7 12t-11.5 13h-45q-7 -7 -11 -13q-4 -5 -6 -10.5t1 -10.5q6 -13 11 -24q5 -10 11 -16q-2 -9 -6 -24.5t-7.5 -33t-5.5 -31.5q-3 -15 -3 -23q0 -5 4.5 -12t10.5 -14t12.5 -12t11 -5t11.5 5t13.5 11t10.5 13.5t4 12.5q0 6 -3 20
q-2 13 -6 31q-3 17 -7 34t-7 26q6 5 11.5 14.5t12.5 24.5v0zM552 68z" />
    <glyph glyph-name="uniE602" unicode="&#xe602;" 
d="M958 662q0 30 -21 51.5t-51 21.5h-749q-30 0 -51 -21.5t-21 -51.5v-748q0 -30 21 -51t51 -21h749q30 0 51 21t21 51v748zM778 358l-267 -267q-14 -14 -34 -14t-34 14l-168 168q-14 14 -14 34t14 34.5t34 14.5t34 -15l134 -133l233 232q14 14 34 14t34 -14t14 -34t-14 -34
z" />
    <glyph glyph-name="uniE603" unicode="&#xe603;" 
d="M959 226q0 89 -60 158t-153 90q-51 70 -132.5 111t-177.5 41q-100 0 -185.5 -45.5t-135.5 -123t-50 -168.5q0 -84 42 -156t115 -119q13 -9 -15 -64l25 8q15 4 43 10t35 4q61 -20 126 -20q80 0 153 30q42 -13 87 -13q50 0 96 15q2 1 4 1q9 0 27.5 -4t32.5 -9l15 -4
q-1 1 -1.5 2.5t-2.5 6t-4 8.5t-3.5 9.5t-2 9.5t0 7.5t2.5 5.5q55 35 87 90t32 119zM498 135q0 -8 -4.5 -13t-13.5 -5q-11 0 -15 5q-7 8 -7 13v132h-167v-132q0 -10 -2 -13q-5 -5 -13 -5q-10 0 -14 5q-6 6 -6 13v286q0 6 6 13q5 5 14 5q8 0 12 -5q3 -3 3 -13v-118h167v118
q0 6 6 13q4 5 15 5q9 0 14 -5q5 -6 5 -13v-286zM605 135q0 -18 -17 -18t-17 18v208q0 10 5 15t14 5q7 0 11 -5q4 -3 4 -15v-208zM606.5 403q-6.5 -7 -16.5 -7t-16.5 7t-6.5 16.5t6.5 16.5t16.5 7t16.5 -7t6.5 -16.5t-6.5 -16.5zM830 31q-15 -10 -8 -37q-32 8 -46 8
q-5 0 -9 -1q-44 -15 -91 -15q-31 0 -62 7q88 44 140.5 123t52.5 173q0 87 -46 164q79 -24 130 -86.5t51 -140.5q0 -58 -29.5 -109.5t-82.5 -85.5z" />
    <glyph glyph-name="uniE604" unicode="&#xe604;" 
d="M341 444h62v-62h-62v62zM450 319h62v-62h-62v62zM450 194h62v-62h-62v62zM341 319h62v-62h-62v62zM341 194h62v-62h-62v62zM621 194h62v-62h-62v62zM450 444h62v-62h-62v62zM512 735q-91 0 -173.5 -35.5t-142.5 -95.5t-95.5 -142.5t-35.5 -173.5t35.5 -173.5t95.5 -142.5
t142.5 -95.5t173.5 -35.5t173.5 35.5t142.5 95.5t95.5 142.5t35.5 173.5t-35.5 173.5t-95.5 142.5t-142.5 95.5t-173.5 35.5zM745 69q0 -13 -9 -22t-22 -9h-140q-3 0 -8 1q-4 -1 -7 -1h-249q-13 0 -22 9t-9 22v438q0 13 9 22t22 9h249q13 0 22 -9t9 -22v-110h124q13 0 22 -9
t9 -22v-297zM621 319h62v-62h-62v62z" />
    <glyph glyph-name="uniE605" unicode="&#xe605;" 
d="M415 340.5q0 -41.5 29.5 -71t71.5 -29.5t71 29.5t29 71t-29 71t-71 29.5t-71.5 -29.5t-29.5 -71zM512 735q-91 0 -173.5 -35.5t-142.5 -95.5t-95.5 -142.5t-35.5 -173.5t35.5 -173.5t95.5 -142.5t142.5 -95.5t173.5 -35.5t173.5 35.5t142.5 95.5t95.5 142.5t35.5 173.5
t-35.5 173.5t-95.5 142.5t-142.5 95.5t-173.5 35.5zM512 20q-9 7 -23.5 19.5t-52 50t-66 74t-52 85.5t-23.5 90q0 90 63.5 153.5t153.5 63.5t153.5 -63.5t63.5 -153.5q0 -118 -161 -270q-32 -30 -56 -49z" />
    <glyph glyph-name="uniE606" unicode="&#xe606;" 
d="M511 736q-91 0 -173.5 -35.5t-142.5 -95.5t-95.5 -142.5t-35.5 -173.5t35.5 -173.5t95.5 -142.5t142.5 -95.5t173.5 -35.5t173.5 35.5t142.5 95.5t95.5 142.5t35.5 173.5t-35.5 173.5t-95.5 142.5t-142.5 95.5t-173.5 35.5zM509.5 -29q-26.5 0 -45.5 18.5t-19 45.5t19 46
t45.5 19t45.5 -19t19 -46t-19 -45.5t-45.5 -18.5zM594 450v0v-1v0v-1q-52 -240 -55 -253v-1q-6 -29 -29 -29q-22 0 -30 31q-3 9 -16 70.5t-25 119.5l-12 57h-1v1v0v1v0v1v0v1v0v1h-1v1v0v1v0q-2 9 -2 18q0 36 25.5 61t61 25t61 -25t25.5 -61q0 -9 -2 -18z" />
    <glyph glyph-name="uniE607" unicode="&#xe607;" 
d="M511 736q-91 0 -173.5 -35.5t-142.5 -95.5t-95.5 -142.5t-35.5 -173.5t35.5 -173.5t95.5 -142.5t142.5 -95.5t173.5 -35.5t173.5 35.5t142.5 95.5t95.5 142.5t35.5 173.5t-35.5 173.5t-95.5 142.5t-142.5 95.5t-173.5 35.5zM766 323l-98 -96q-10 -9 -8 -23l23 -135
q3 -16 -10.5 -26t-28.5 -2l-121 63q-12 7 -24 0l-121 -63q-15 -8 -28.5 2t-10.5 26l23 135q2 14 -8 23l-98 96q-12 11 -6.5 27t21.5 19l135 19q14 2 20 15l61 122q7 15 24 15t24 -15l60 -122q7 -13 21 -15l135 -19q16 -3 21.5 -19t-6.5 -27z" />
    <glyph glyph-name="uniE608" unicode="&#xe608;" 
d="M511 736q-91 0 -173.5 -35.5t-142.5 -95.5t-95.5 -142.5t-35.5 -173.5t35.5 -173.5t95.5 -142.5t142.5 -95.5t173.5 -35.5t173.5 35.5t142.5 95.5t95.5 142.5t35.5 173.5t-35.5 173.5t-95.5 142.5t-142.5 95.5t-173.5 35.5zM364.5 456q25.5 0 44.5 -20t19 -47t-19 -46
t-44.5 -19t-43.5 19t-18 46t18 47t43.5 20zM261 125l83 132l44 -44l125 154l41 -45l83 113l124 -310h-500z" />
    <glyph glyph-name="uniE609" unicode="&#xe609;" 
d="M330 417.5q-12 -12.5 -12 -29.5t12 -29t29 -12t29 12t12 29t-12 29.5t-29 12.5t-29 -12.5zM511 736q-91 0 -173.5 -35.5t-142.5 -95.5t-95.5 -142.5t-35.5 -173.5t35.5 -173.5t95.5 -142.5t142.5 -95.5t173.5 -35.5t173.5 35.5t142.5 95.5t95.5 142.5t35.5 173.5
t-35.5 173.5t-95.5 142.5t-142.5 95.5t-173.5 35.5zM693 171l-118 -119q-13 -13 -28.5 -13t-24.5 6t-9 7l-254 248v184h188q219 -224 248 -253q13 -15 12.5 -28.5t-7.5 -22.5zM724 221q1 2 -2 6.5t-6 7.5l-3 3l-258 258h-143v43h175l219 -219q41 -42 39 -43q14 -23 -15 -51z
" />
    <glyph glyph-name="uniE60A" unicode="&#xe60a;" 
d="M511 736q-91 0 -173.5 -35.5t-142.5 -95.5t-95.5 -142.5t-35.5 -173.5t35.5 -173.5t95.5 -142.5t142.5 -95.5t173.5 -35.5t173.5 35.5t142.5 95.5t95.5 142.5t35.5 173.5t-35.5 173.5t-95.5 142.5t-142.5 95.5t-173.5 35.5zM680.5 85q-7.5 -8 -18.5 -8t-19 7l-162 158
q-7 7 -7 19v345q0 11 7 18.5t18.5 7.5t18.5 -7.5t7 -18.5v-334l155 -149q8 -8 8 -19t-7.5 -19z" />
    <glyph glyph-name="uniE60B" unicode="&#xe60b;" 
d="M678 404q19 -22 40 -45q18 -21 40 -46t45 -51q30 -34 49 -60.5t30 -49t15 -41t4 -37.5v-58q0 -27 -8.5 -48.5t-24.5 -37t-36 -24t-42 -8.5h-551q-24 0 -46 8t-38.5 23t-26 35.5t-9.5 46.5v68q0 22 4 41.5t14.5 41t29.5 46t47 53.5q23 25 48 51t44 46q23 23 45 46h327z
M510.5 66q23.5 0 44 9t35.5 24t24 36t9 44.5t-9 44t-24 35.5t-35.5 24t-44 9t-44.5 -9t-36 -24t-24 -35.5t-9 -44t9 -44.5t24 -36t36 -24t44.5 -9zM958 512v-56q0 -23 -16.5 -39t-40.5 -16h-111q-23 0 -39 16t-16 39v56h-448v-56q0 -23 -16 -39t-39 -16h-111q-24 0 -40.5 16
t-16.5 39v58q0 11 5.5 18.5t13.5 13.5t18 11t20 11q9 6 43.5 24t86.5 38t118.5 35t141.5 15q86 0 153.5 -15t117 -35t79.5 -38l40 -24q11 -6 21 -11t18 -11t13 -13.5t5 -18.5v-2z" />
    <glyph glyph-name="uniE60C" unicode="&#xe60c;" 
d="M870 599q-37 54 -91.5 89t-118.5 47q-13 3 -23.5 -4.5t-13 -20.5t5 -23.5t20.5 -12.5q107 -20 169.5 -110t42.5 -198q-2 -13 5.5 -23.5t19.5 -13.5h6q11 0 20 7t11 18q24 134 -53 245zM638 549q52 -10 82 -53.5t20 -95.5q-2 -13 5.5 -23.5t20.5 -13.5h5q11 0 20 7t11 18
q14 78 -31 143t-122 79q-13 3 -23.5 -4.5t-13 -20.5t5 -23.5t20.5 -12.5zM598 451q19 -3 30 -19t7 -34q-2 -13 5 -23.5t20 -13.5h6q11 0 19.5 7t10.5 18q9 44 -17 81t-70 45q-12 3 -23 -4.5t-13 -20t5 -23.5t20 -13zM704 147q-21 -8 -35.5 -29.5t-21.5 -41.5t-25 -36.5
t-45 -18.5q-23 -2 -98 69.5t-141 153t-66 106.5q-1 22 5.5 38t19 26t23.5 15.5t29 12t24 9.5q10 4 12 20.5t-2.5 39t-14 49t-23.5 52t-29.5 46t-34 33.5t-35.5 13q-32 0 -57 -10.5t-46.5 -34.5t-34 -70t-14.5 -113q0 -90 34 -178.5t88.5 -158t123 -129t136 -97t128 -56.5
t100.5 -13q86 13 139.5 55.5t63.5 95.5q6 32 -35 73t-93 65t-75 14z" />
    <glyph glyph-name="uniE60D" unicode="&#xe60d;" 
d="M511 736q-91 0 -173.5 -35.5t-142.5 -95.5t-95.5 -142.5t-35.5 -173.5t35.5 -173.5t95.5 -142.5t142.5 -95.5t173.5 -35.5t173.5 35.5t142.5 95.5t95.5 142.5t35.5 173.5t-35.5 173.5t-95.5 142.5t-142.5 95.5t-173.5 35.5zM469 528q0 13 9.5 22t22 9t22 -9t9.5 -22v-333
q0 -12 -9.5 -21.5t-22 -9.5t-22 9.5t-9.5 21.5v333zM512.5 26q-21.5 0 -36.5 15.5t-15 37t15 36.5t36.5 15t37 -15t15.5 -36.5t-15.5 -37t-37 -15.5z" />
    <glyph glyph-name="uniE60E" unicode="&#xe60e;" 
d="M308 -158q-29 0 -49.5 20.5t-20.5 49.5t21 49l328 328l-328 328q-21 20 -21 49t20.5 49.5t49.5 20.5t49 -21l427 -426l-427 -426q-20 -21 -49 -21z" />
    <glyph glyph-name="uniE60F" unicode="&#xe60f;" 
d="M511 736q-91 0 -173.5 -35.5t-142.5 -95.5t-95.5 -142.5t-35.5 -173.5t35.5 -173.5t95.5 -142.5t142.5 -95.5t173.5 -35.5t173.5 35.5t142.5 95.5t95.5 142.5t35.5 173.5t-35.5 173.5t-95.5 142.5t-142.5 95.5t-173.5 35.5zM702 343l-212 -212q-22 -22 -53 -22t-53 22
t-22 53t22 53l176 176l36 -35l-177 -177q-7 -7 -7 -17.5t7 -17.5t17.5 -7t17.5 7l212 212q22 22 22 53t-21.5 53t-53 22t-53.5 -22l-222 -223h-1q-36 -36 -36 -87.5t36.5 -88t88 -36.5t87.5 36l1 1l152 152l35 -36l-152 -152h-1q-51 -51 -123 -51t-123 51t-51 123t51 123
q0 1 1 1l222 222q37 37 88.5 37t88 -36.5t36.5 -88.5t-36 -88z" />
    <glyph glyph-name="uniE610" unicode="&#xe610;" 
d="M683 289h-111v122q0 8 -6 14t-14 6h-82q-8 0 -14 -6t-6 -14v-122l-112 -1q-6 0 -9 -5v-3v-1v-1v-1q0 -1 1 -2v-1q1 -1 1 -2l168 -187l1 -1v0l1 -1h1q0 -1 2 -1v0q5 -2 9 1l1 1l1 1l175 187q0 1 1 2v1q1 1 1 2v1v1q1 10 -9 10zM470 451h82q8 0 14 6t6 15v20q0 8 -6 14
t-14 6h-82q-8 0 -14 -6t-6 -14v-20q0 -9 6 -15t14 -6zM511 736q-91 0 -173.5 -35.5t-142.5 -95.5t-95.5 -142.5t-35.5 -173.5t35.5 -173.5t95.5 -142.5t142.5 -95.5t173.5 -35.5t173.5 35.5t142.5 95.5t95.5 142.5t35.5 173.5t-35.5 173.5t-95.5 142.5t-142.5 95.5
t-173.5 35.5zM511 -76q-99 0 -183.5 48.5t-133.5 133t-49 183.5t49 183.5t133.5 133.5t183.5 49t183.5 -49t133 -133.5t48.5 -183.5t-48.5 -183.5t-133 -133t-183.5 -48.5zM511 -76z" />
    <glyph glyph-name="uniE611" unicode="&#xe611;" 
d="M671 736h-511q-18 0 -31 -7t-19 -16.5t-9.5 -19t-3.5 -16.5l-1 -7v-764q0 -18 6.5 -31t16 -19t19 -9.5t15.5 -3.5l7 -1h702q18 0 31 6.5t19 16t9.5 19t3.5 16.5l1 6v574zM798 34h-574v64h574v-64zM798 161h-574v64h574v-64zM798 289h-574v64h574v-64zM671 480v192
l191 -192h-191zM671 480z" />
    <glyph glyph-name="uniE612" unicode="&#xe612;" 
d="M714 180h-383q-9 0 -9 -9t9 -9h383q9 0 9 9t-9 9zM427 301q7 0 12 5.5t5 12.5v70q0 7 -5 12t-12 5h-104q-8 0 -13 -5t-5 -12v-70q0 -7 5 -12.5t13 -5.5h104zM714 249h-383q-9 0 -9 -8.5t9 -8.5h383q9 0 9 8.5t-9 8.5zM714 389h-209q-9 0 -9 -9t9 -9h209q9 0 9 9t-9 9z
M511 736q-91 0 -173.5 -35.5t-142.5 -95.5t-95.5 -142.5t-35.5 -173.5t35.5 -173.5t95.5 -142.5t142.5 -95.5t173.5 -35.5t173.5 35.5t142.5 95.5t95.5 142.5t35.5 173.5t-35.5 173.5t-95.5 142.5t-142.5 95.5t-173.5 35.5zM775 145q0 -29 -20.5 -49.5t-48.5 -20.5h-418
q-29 0 -49.5 20.5t-20.5 49.5v261q0 29 20.5 49.5t49.5 20.5h418q28 0 48.5 -20.5t20.5 -49.5v-261zM714 319h-209q-9 0 -9 -9t9 -9h209q9 0 9 9t-9 9z" />
    <glyph glyph-name="uniE613" unicode="&#xe613;" 
d="M891 369l3 1q0 4 -1 9l-3 -1q1 -4 1 -9zM879 403l2 2q-3 3 -6 5q-1 0 -2 1l-1 -3l1 -1zM889 381l3 1q-1 5 -2 9l-3 -1q1 -4 2 -9zM892 359v-2h3v2v7h-3v-7zM819 271l1 -3q5 1 9 2l-1 3q-4 -1 -9 -2zM827 350l-3 -2q3 -4 7 -7l2 2q-3 3 -6 7zM819 373l-3 -1q0 -4 2 -9l3 1
q-2 4 -2 9zM881 340l-2 2q-4 -1 -8 -3l1 -3q4 2 9 4zM825 353q-2 3 -3 8l-3 -1q1 -5 4 -9zM868 336v3q-5 -2 -9 -2v-3q5 0 9 2zM834 403l-1 3q-5 -3 -8 -6l2 -2q3 3 7 5zM823 391l2 4l-2 2q-2 -2 -3 -5q-1 -2 -2 -3l3 -2zM845 408l-1 3q-4 -1 -9 -3l2 -3q4 2 8 3zM820 385
h-3q-1 -4 -1 -9h3q0 4 1 9zM856 334v3h-1q-4 0 -8 1l-1 -3q4 -1 9 -1h1zM831 274l1 -3q5 1 9 3l-1 3q-4 -2 -9 -3zM857 411v3q-5 0 -10 -2l1 -3q5 1 9 2zM870 412q-5 2 -10 2v-3q5 -1 9 -2zM885 393l3 1q-2 5 -5 9l-2 -2zM924 402l3 -1q1 4 2 9l-3 1q-1 -5 -2 -9zM920 390
l3 -1q1 4 3 9l-3 1q-2 -5 -3 -9zM910 367l2 -1q2 3 5 8l-3 2q-2 -5 -4 -9zM927 414l3 -1q2 5 3 9l-3 1q-1 -5 -3 -9zM907 364q-2 -3 -5 -6l2 -2l6 6q0 1 1 1l-3 2q0 -1 -1 -1zM895 351v3h-3q-1 -4 -1 -7l-1 1l-8 -4l2 -3q3 2 7 4l3 -1v4l1 -1q4 3 7 7l-2 2zM937 450h3
q1 4 2 9h-3q-1 -4 -2 -9zM836 341q0 1 -1 1l-1 -3h1l8 -4l1 3q-4 1 -8 3zM931 426l3 -1q1 5 2 9l-3 1q-1 -4 -2 -9zM934 438l3 -1l2 10h-3q-1 -5 -2 -9zM915 379l3 -2q2 4 3 9l-2 1q-2 -5 -4 -8zM864 291l2 -3q3 4 7 7l-3 2zM872 300l3 -2q3 3 5 7l-3 2q-2 -4 -5 -7z
M854 283l2 -2q4 2 7 5l-2 3q-3 -3 -7 -6zM879 310l3 -2q2 4 4 9l-3 1zM843 278l1 -3q5 2 9 4l-2 3zM886 325q-1 -2 -1 -4l2 -1l2 4q1 2 2 5h-3zM889 332h3q1 4 1 9l-3 1q0 -5 -1 -10zM812 270v1l-3 -1q1 -4 2 -9l3 1q-1 2 -1 5q1 0 4 1l-1 3q-2 -1 -4 -1zM958 453l-12 37
l-22 -34l17 12q-1 -3 -2 -5l4 -1q0 3 1 6zM169 344l-1 3q-4 -3 -8 -5l1 -3q4 3 8 5zM273 383v3q-5 -1 -9 -2v-3q5 1 9 2zM286 386l-1 3q-5 -1 -9 -2v-3zM298 389l-1 3q-4 -1 -9 -2l1 -3q4 1 9 2zM137 324l-1 3q-4 -3 -8 -5l2 -3q4 3 7 5zM148 331l-2 3q-4 -3 -8 -5l2 -3
q4 3 8 5zM117 310l-1 2l-8 -6l2 -2q4 3 7 6zM310 391l-1 3q-4 -1 -9 -2l1 -3q4 1 9 2zM371 399v4q-4 -1 -9 -1v-3h9zM83 279q3 3 7 6l-3 2l-6 -6v-1h-1q-1 -2 -2 -5l3 -1q1 2 2 5zM384 400v4q-5 -1 -10 -1l1 -3h9zM359 398v3q-5 0 -10 -1l1 -3q5 1 9 1zM322 393v3
q-5 0 -10 -1l1 -3q5 1 9 1zM334 395v3q-5 0 -9 -1v-3q5 0 9 1zM347 397l-1 3q-4 -1 -9 -1v-3q5 0 10 1zM158 338l-1 2l-8 -4l1 -3q4 2 8 5zM108 302l-2 2q-4 -3 -7 -6l2 -2q3 3 7 6zM80 271l-3 1q-2 -4 -3 -8l2 -1zM80 169q-2 4 -3 7l-3 -2l4 -6q0 -1 1 -2l2 2q0 1 -1 1z
M80 164q3 -4 7 -8l2 3l-6 6zM89 154q3 -3 7 -6l2 3q-4 3 -7 6zM396 401v3h-9v-3h9zM110 140l8 -4l2 3q-5 2 -9 4zM99 146l8 -4l2 2q-5 3 -8 5zM90 289l2 -2l7 7l-3 2q-3 -3 -6 -7zM69 236h-3q-1 -5 -1 -9h3q0 4 1 9zM72 248l-3 1l-2 -10h3q1 4 2 9zM75 260l-3 1q-1 -5 -2 -9
l3 -1q1 4 2 9zM67 216q0 3 1 7l-3 1q-1 -4 -1 -8v-2h3v2zM72 187l-3 -1q1 -4 3 -9l3 2q-2 4 -3 8zM69 199l-3 -1q1 -4 2 -9l3 1q-1 4 -2 9zM67 211h-3q1 -5 1 -9h3q0 5 -1 9zM521 403q-5 0 -9 1v-4h9v3zM693 373q-4 1 -9 3l-1 -3q5 -2 9 -3zM681 376q-4 2 -9 3l-1 -3
q5 -1 9 -3zM657 382q-5 1 -9 2l-1 -3q4 -1 9 -2zM669 380q-4 1 -9 2l-1 -3q5 -1 9 -2zM645 385q-5 1 -9 2l-1 -3q5 -1 9 -2zM409 402v3h-10v-4q5 1 10 1zM632 388q-4 1 -9 1v-3q4 -1 9 -1v3zM608 392q-5 1 -9 2l-1 -3q5 -1 9 -2zM801 297l3 1q-2 4 -5 9l-2 -2zM805 285l3 1
q-1 5 -3 9l-3 -1q2 -4 3 -9zM705 370q-4 1 -9 2l-1 -3q5 -1 9 -2zM808 273l3 1q-1 5 -2 9l-3 -1q1 -4 2 -9zM763 345q-4 3 -8 5l-2 -3l8 -4zM795 308l3 1q-3 4 -5 8l-3 -2q3 -3 5 -7zM788 318l3 2q-3 4 -6 7l-3 -2q3 -3 6 -7zM620 390q-4 1 -9 2l-1 -3l10 -2v3zM471 406h-9
v-3q4 0 9 -1v4zM484 405h-10v-3h10v3zM459 406h-10v-3h10v3zM446 403v3h-9v-3h9zM421 402v4q-5 -1 -9 -1v-3h9zM496 404q-5 1 -9 1v-3q4 0 9 -1v3zM596 394l-10 2v-4q4 0 9 -1zM434 403v3h-10v-4q5 1 10 1zM571 398q-5 0 -10 1v-3q5 -1 9 -1zM583 396q-4 1 -9 1l-1 -3
q5 0 10 -1v3zM558 399q-4 1 -9 1v-3q4 0 9 -1v3zM534 402q-5 0 -10 1v-4h9zM126 320l-8 -6l2 -2q4 2 7 5zM546 401h-9l-1 -3q5 0 10 -1v4zM509 404h-10v-3h9zM784 186l2 -3q4 3 7 6l-2 3q-3 -3 -7 -6zM632 116l-6 -2l1 -3q3 1 5 2q2 0 4 1l-1 3q-2 -1 -3 -1zM662 125l1 -3
q5 1 9 3l-1 3q-4 -2 -9 -3zM650 121l1 -3q5 1 9 3l-1 3q-4 -2 -9 -3zM638 118l1 -3q5 1 9 2l-1 3q-4 -1 -9 -2zM674 129l1 -3q4 2 9 3l-1 3q-5 -1 -9 -3zM686 133l1 -3l8 4l-1 3zM709 143l1 -3q4 2 9 4l-2 2q-4 -1 -8 -3zM717 366q-4 1 -9 3l-1 -3q5 -2 9 -3zM697 138l1 -3
q5 2 9 4l-1 2q-4 -1 -9 -3zM602 108l1 -3q4 1 9 2l-1 3q-4 -1 -9 -2zM541 97v-3l10 2l-1 3q-4 -1 -9 -2zM529 96v-3q5 0 9 1v3q-5 -1 -9 -1zM553 99l1 -3q4 1 9 2l-1 3q-4 -1 -9 -2zM614 111l1 -3q5 1 9 2l-1 3q-4 -1 -9 -2zM516 95l1 -4q4 1 9 1v4q-5 -1 -10 -1zM729 362
q-4 1 -9 3l-1 -3q5 -2 9 -3zM566 101v-3q5 1 9 2v3q-5 -1 -9 -2zM590 106l1 -3q4 1 9 2l-1 3q-4 -1 -9 -2zM578 103v-3l10 2l-1 3q-5 -1 -9 -2zM808 213l3 -1q2 4 3 9h-3q-1 -4 -3 -8zM774 178l2 -3l8 6l-2 3zM801 203l3 -2q3 4 5 8l-2 1q-3 -3 -6 -7zM793 194l2 -3l7 7
l-2 2q-3 -3 -7 -6zM815 237zM504 93v-3q5 1 9 1v3q-5 0 -9 -1zM815 239v8h-3v-8h3zM811 258q0 -4 1 -9h3q0 5 -1 10zM812 228v-4h3v3v6h-3v-5zM812 237zM720 148l1 -3q5 2 9 4l-1 3q-5 -2 -9 -4zM742 159l2 -3l8 4l-1 3q-4 -2 -9 -4zM752 352q-4 2 -9 4l-1 -3q5 -2 9 -4z
M731 153l2 -3q4 2 8 5l-1 2q-4 -2 -9 -4zM741 357q-5 2 -9 3l-1 -2l8 -4zM773 338q-4 3 -7 6l-2 -3q4 -3 7 -6zM753 165l2 -3q4 2 8 5l-2 3q-4 -3 -8 -5zM764 171l2 -2q4 2 7 5l-1 2q-4 -2 -8 -5zM782 329q-3 4 -6 7l-3 -3q4 -3 7 -6zM367 91h9v3h-9v-3zM218 110q5 -1 9 -2
l1 3q-5 1 -9 2zM225 372q-5 -2 -9 -3l1 -3q4 1 9 3zM237 376q-5 -1 -9 -3l1 -3q4 2 9 3zM213 368q-4 -2 -9 -4l2 -3l8 4zM206 112q4 -1 9 -2v3q-4 1 -9 2v-3zM261 383q-5 -1 -9 -2v-3q5 1 9 2v3zM243 106q4 -1 9 -1v3q-4 0 -9 1v-3zM230 108l10 -2v4q-5 0 -9 1zM249 380
q-5 -2 -9 -3l1 -3q4 1 8 3v3zM255 104l9 -1l1 3l-10 1v-3zM169 120q5 -1 9 -2l1 3q-5 1 -9 2zM145 126q4 -1 9 -2l1 3q-5 1 -9 2zM157 123q4 -1 9 -2l1 3q-5 1 -9 2zM133 130q4 -1 9 -3l1 3q-5 2 -9 3zM195 357q4 1 8 3l-1 3l-8 -4h-1l1 -3zM170 348l2 -3q4 2 8 5l-1 2
q-4 -2 -9 -4zM182 354l1 -3l8 4l-1 3zM193 114q5 0 10 -1v3q-4 1 -9 1zM181 117q5 -1 9 -2l1 3q-5 1 -9 2zM342 94q4 -1 9 -1v3q-4 0 -9 1v-3zM417 88h9v3q-5 0 -9 1v-4zM404 89h9l1 3h-10v-3zM267 103l10 -2v3q-4 1 -9 2zM392 90q4 -1 9 -1v3q-4 0 -9 1v-3zM467 91v-3
q4 0 9 1v3q-5 0 -9 -1zM444 91h-2v-3h2h7v3h-7zM379 90h9l1 3h-10v-3zM479 92v-3h9v3h-9zM454 91v-3h9v3h-9zM429 88h9v3h-9v-3zM292 99q5 0 9 -1l1 3q-5 1 -9 1zM317 96q5 0 9 -1l1 3q-5 1 -10 1v-3zM305 98q4 -1 9 -1v3q-4 0 -9 1v-3zM280 101q4 -1 9 -1v3q-4 0 -9 1v-3z
M491 93l1 -4q4 1 9 1v3h-10zM354 92h10v3h-10v-3zM121 135q4 -2 9 -4l1 3l-8 4zM329 95q5 -1 10 -1v3q-5 0 -9 1z" />
    <glyph glyph-name="uniE614" unicode="&#xe614;" 
d="M563 274q0 70 -46 123q-47 -53 -47 -125q0 -70 46 -123q47 53 47 125zM511 736q-91 0 -173.5 -35.5t-142.5 -95.5t-95.5 -142.5t-35.5 -173.5t35.5 -173.5t95.5 -142.5t142.5 -95.5t173.5 -35.5t173.5 35.5t142.5 95.5t95.5 142.5t35.5 173.5t-35.5 173.5t-95.5 142.5
t-142.5 95.5t-173.5 35.5zM232 150q-46 53 -46 124q0 69 44 121t111 64v-137q-7 -62 -40 -109q-24 -35 -69 -63zM375 85q-48 0 -89 22q41 30 57 51q10 14 17 30t10 26l2 9q7 -33 35 -68q12 -15 55 -49q-41 -21 -87 -21zM516 149q-40 17 -76 70q-15 22 -24 48.5t-11 41.5
l-2 16v135q69 -10 114 -63q44 50 108 61v-137q-7 -62 -40 -110q-23 -34 -69 -62zM659 84q-47 0 -89 22q41 30 57 51q10 13 17.5 29.5t9.5 25.5l2 10q7 -34 36 -68q12 -15 55 -49q-42 -21 -88 -21zM801 148q-41 17 -77 70q-15 22 -24 48.5t-11 41.5l-2 16v135q69 -10 115 -63
t46 -124t-47 -124z" />
    <glyph glyph-name="uniE615" unicode="&#xe615;" 
d="M449 198q-11 -8 -4 -19q6 -10 18 -2q11 9 5 19q-7 11 -19 2zM449 302q-75 -4 -127 -39.5t-52 -84.5q0 -50 52 -82.5t127 -28.5q74 3 126.5 42.5t52.5 89.5q0 49 -51.5 77.5t-127.5 25.5zM516 135q-24 -31 -63.5 -39.5t-84.5 12.5q-27 15 -27 45q1 1 -0.5 10t3 24
t11.5 29.5t26.5 26.5t47.5 15q35 4 59.5 -9t33 -33.5t7.5 -43t-13 -37.5zM402 185q-13 -2 -22.5 -12t-9.5 -22q0 -11 10 -18.5t24 -5.5t24 11t10 21t-10 19.5t-26 6.5zM511 736q-91 0 -173.5 -35.5t-142.5 -95.5t-95.5 -142.5t-35.5 -173.5t35.5 -173.5t95.5 -142.5
t142.5 -95.5t173.5 -35.5t173.5 35.5t142.5 95.5t95.5 142.5t35.5 173.5t-35.5 173.5t-95.5 142.5t-142.5 95.5t-173.5 35.5zM717 155q-29 -61 -112 -94t-164 -27q-40 3 -74.5 11.5t-70 25t-58 46.5t-26.5 71q-1 6 -0.5 16.5t11 42t33.5 60.5q3 5 8 12t22 26t34.5 35t43 33
t49.5 25t42 8t27.5 -5t15.5 -14.5t7.5 -18.5t1.5 -19q-6 -19 -4 -27t23 -2q3 2 9 4t22 7t30.5 7t30.5 -1t25 -13q12 -12 13.5 -28.5t-3.5 -26.5l-5 -10l-2 -1q0 -1 -0.5 -3.5t0 -5t4 -4.5t10.5 -3q8 -2 19 -7t23 -15t19.5 -23.5t7 -35t-11.5 -46.5zM728 356v-1v-1h-1
q-1 -8 -6.5 -13t-13.5 -5t-14 6t-6 14v2v1v7q0 24 -17 41t-40 17q-9 0 -15 6t-6 14.5t6 14.5t15 6q40 0 69 -29t29 -70v-9v-1zM806 340q0 -3 -1 -6v0q-5 -19 -24 -19q-10 0 -17.5 7.5t-7.5 17.5l1 3h-1q3 11 3 23q0 54 -38 91.5t-91 37.5q-11 0 -18 7.5t-7 17.5t7 17.5
t18 7.5q73 0 125.5 -52.5t52.5 -126.5q0 -12 -2 -26z" />
    <glyph glyph-name="uniE616" unicode="&#xe616;" 
d="M638 320q4 5 4 10t-2 8l-2 2l-278 -3l208 -28q-159 -90 -172 -104q-5 -7 -5 -13t2 -10l3 -3l253 11l-1 4l-168 13q148 102 158 113zM511 736q-91 0 -173.5 -35.5t-142.5 -95.5t-95.5 -142.5t-35.5 -173.5t35.5 -173.5t95.5 -142.5t142.5 -95.5t173.5 -35.5t173.5 35.5
t142.5 95.5t95.5 142.5t35.5 173.5t-35.5 173.5t-95.5 142.5t-142.5 95.5t-173.5 35.5zM648 194l28 -2l-27 -2l26 -152l-167 88l-166 -88l32 186l-135 131l186 27l83 169l84 -169l186 -27l-135 -131z" />
    <glyph glyph-name="uniE617" unicode="&#xe617;" 
d="M604 385l212 212q19 19 19 46t-19.5 46t-46.5 19t-46 -19l-212 -212l-212 212q-19 19 -46 19t-46 -19t-19 -46t19 -46l212 -212l-212 -212q-19 -19 -19 -46t19 -46.5t46 -19.5t46 19l212 212l212 -212q19 -19 46 -19t46.5 19.5t19.5 46.5t-19 46z" />
    <glyph glyph-name="uniE618" unicode="&#xe618;" 
d="M866 660l6 6l-85 85q-26 27 -69 26.5t-70 -27.5l-67 -66q-26 -27 -26 -69t27 -69l72 -72q10 -10 12 -25.5t-4 -35.5t-25 -47t-49 -57t-56.5 -49t-47 -25t-36 -4t-25.5 12l-72 72q-27 27 -69.5 26.5t-69.5 -27.5l-67 -67q-26 -26 -26 -68.5t27 -68.5l85 -85l4 4
q71 -64 204 -19t267.5 179.5t179.5 267.5t-20 203zM608 572q-16 16 -16.5 43t15.5 43l67 67q16 16 44 16.5t44 -15.5l59 -60l-154 -154zM231 76l-60 59q-16 16 -16 43.5t16 43.5l67 66q16 16 43.5 16.5t43.5 -15.5l60 -59zM680.5 215q-122.5 -122 -240 -167.5t-179.5 7.5
l147 147q35 -22 84 -2t116.5 87t87.5 116t-2 85l147 147q53 -63 7.5 -180.5t-168 -239.5z" />
    <glyph glyph-name="uniE619" unicode="&#xe619;" 
d="M836.5 663q-50.5 0 -86 -35.5t-35.5 -85.5t35 -86l-204 -279q-34 21 -74 21q-26 0 -51 -10l2 2l-114 145q45 43 45 106q0 60 -42.5 102.5t-102.5 42.5t-102.5 -42.5t-42.5 -102.5t42.5 -102.5t102.5 -42.5q35 0 66 16l113 -142q-57 -43 -57 -114q0 -58 41.5 -99.5
t100 -41.5t100 41.5t41.5 99.5q0 55 -37 95l206 282q26 -12 53 -12q51 0 86.5 35.5t35.5 85.5t-35.5 85.5t-86 35.5zM105 440.5q0 43.5 30.5 74t74 30.5t74 -30.5t30.5 -74t-30.5 -74t-74 -30.5t-74 30.5t-30.5 74zM472 -45q-42 0 -71.5 30t-29.5 71.5t29.5 71.5t71.5 30
t71.5 -30t29.5 -71.5t-29.5 -71.5t-71.5 -30zM836.5 461q-33.5 0 -57.5 23.5t-24 57t24 57.5t57.5 24t57 -24t23.5 -57.5t-23.5 -57t-57 -23.5z" />
    <glyph glyph-name="uniE61A" unicode="&#xe61a;" 
d="M872 484h-222v196q0 23 -16.5 39.5t-39.5 16.5h-444q-23 0 -39.5 -16.5t-16.5 -39.5v-782q0 -23 16.5 -39.5t39.5 -16.5h444q7 0 14 2q8 -2 14 -2h250q23 0 39.5 16.5t16.5 39.5v531q0 23 -16.5 39t-39.5 16zM317 10h-112v112h112v-112zM317 233h-112v112h112v-112z
M317 457h-112v111h112v-111zM511 10h-111v112h111v-112zM511 233h-111v112h111v-112zM511 457h-111v111h111v-111zM816 10h-111v112h111v-112zM816 233h-111v112h111v-112z" />
    <glyph glyph-name="uniE61B" unicode="&#xe61b;" 
d="M795 736h-1q-1 -1 -2 -1v1q-24 0 -37.5 -13.5t-43.5 -66.5q-42 -74 -90 -211.5t-27 -179.5q11 -21 37.5 -33.5t51 -17.5t43.5 -18.5t19 -35.5v-268q0 -21 15 -35.5t35.5 -14.5t35 14.5t14.5 35.5v794q0 21 -14.5 35.5t-35.5 14.5zM396 736v-116q0 -6 -4.5 -10.5t-11 -4.5
t-11 4.5t-4.5 10.5v116h-30v-116q0 -6 -4.5 -10.5t-11 -4.5t-11 4.5t-4.5 10.5v116h-29v-116q0 -6 -4.5 -10.5t-11 -4.5t-11 4.5t-4.5 10.5v116h-39l-28 -312q0 -45 26 -81t67 -51v-400q0 -21 14.5 -35.5t35 -14.5t35 14.5t14.5 35.5v401q40 15 65 50.5t25 80.5l-24 312h-39
z" />
    <glyph glyph-name="uniE61C" unicode="&#xe61c;" 
d="M827 701q-63 63 -145 97t-171.5 34t-171 -34t-144.5 -97t-97 -144.5t-34 -171t34 -171.5t97 -145t144.5 -97t171 -34t171.5 34t145 97t97 145t34 171.5t-34 171t-97 144.5zM511 -9q-107 0 -198 52.5t-143.5 143.5t-52.5 198t52.5 198t143.5 143.5t198 52.5t198 -52.5
t143.5 -143.5t52.5 -198t-52.5 -198t-143.5 -143.5t-198 -52.5zM524 370v314q0 10 -7.5 18t-18.5 8t-18.5 -8t-7.5 -18v-325q0 -11 8 -19l152 -148q8 -8 19 -8t18.5 8t7.5 19t-8 19z" />
    <glyph glyph-name="uniE61D" unicode="&#xe61d;" 
d="M511 736q-98 0 -181.5 -48.5t-132 -132t-48.5 -181.5q0 -50 20 -106.5t52 -106.5t70.5 -99t77 -88t70.5 -69t52 -47l20 -16q8 6 21 16.5t50.5 44.5t71.5 69.5t75.5 86.5t71.5 99.5t51 106.5t21 109q0 98 -48.5 181.5t-132 132t-181.5 48.5zM517.5 209q-69.5 0 -118.5 49
t-49 118.5t49 118.5t118.5 49t118.5 -49t49 -118.5t-49 -118.5t-118.5 -49z" />
    <glyph glyph-name="uniE61E" unicode="&#xe61e;" 
d="M717 -62q-25 0 -42 18l-429 429l429 429q17 18 42 18t42 -17.5t17 -42.5t-17 -42l-345 -345l345 -345q17 -17 17 -42t-17 -42.5t-42 -17.5z" />
    <glyph glyph-name="uniE61F" unicode="&#xe61f;" 
d="M805 5h-187q-11 0 -18.5 8t-7.5 19v185h-186v-185q0 -11 -8 -19t-18 -8h-186q-11 0 -19 8t-8 19v344h-76q-18 0 -25 16.5t6 29.5l416 421q7 7 18 7.5t19 -7.5l425 -413q12 -12 5.5 -28.5t-24.5 -16.5h-100v-353q0 -11 -7.5 -19t-18.5 -8zM645 58h133v353q0 11 8 19t19 8
h61l-359 349l-353 -358h40q11 0 19 -7.5t8 -18.5v-345h133v185q0 11 7.5 19t18.5 8h238q11 0 19 -8t8 -19v-185z" />
    <glyph glyph-name="uniE620" unicode="&#xe620;" 
d="M863 216q-17 42 -42 76q22 17 22 55q0 26 -11.5 44t-27.5 18q3 20 3 40q0 119 -84 202.5t-203.5 83.5t-203.5 -83.5t-84 -202.5q0 -22 3 -44q-24 -16 -24 -58q0 -22 9 -39q-29 -32 -51 -75q-19 -38 -25.5 -78t-1.5 -66t18 -33q9 -5 32 10.5t47 44.5q8 -70 62 -124
q-43 -13 -68 -36t-21 -48q5 -31 51.5 -49t108.5 -11q44 5 78.5 21t49.5 38h15q13 0 26 1q16 -21 49 -36.5t74 -21.5q59 -7 104 10t49 48q4 25 -20.5 48t-65.5 37q50 51 60 117q22 -30 42.5 -47.5t32.5 -14.5q9 2 15 27t2 66.5t-20 79.5z" />
    <glyph glyph-name="uniE621" unicode="&#xe621;" 
d="M511 16l-426 427q-21 20 -21 49t20.5 49.5t49.5 20.5t49 -21l328 -328l328 328q20 21 49 21t49.5 -20.5t20.5 -49.5t-21 -49z" />
    <glyph glyph-name="uniE622" unicode="&#xe622;" 
d="M479 411q-33 -7 -57 -31q-29 -27 -36 -67q-1 -8 3 -13.5t11 -6.5q2 -1 3 -1q15 0 17 15q5 28 26 48q17 17 41 22q7 1 11 7.5t2 13.5t-8 10.5t-13 2.5zM512 735q-91 0 -173.5 -35.5t-142.5 -95.5t-95.5 -142.5t-35.5 -173.5t35.5 -173.5t95.5 -142.5t142.5 -95.5
t173.5 -35.5t173.5 35.5t142.5 95.5t95.5 142.5t35.5 173.5t-35.5 173.5t-95.5 142.5t-142.5 95.5t-173.5 35.5zM480 560q0 7 5.5 12.5t13 5.5t13 -5.5t5.5 -12.5v-49q0 -8 -5.5 -13t-13 -5t-13 5t-5.5 13v49zM305 337q-5 -8 -15 -8q-4 0 -8 2l-46 26q-6 4 -8 11t2 13t11 8
t13 -2l45 -26q6 -4 8 -10.5t-2 -13.5zM332 510.5q6 3.5 13 2t11 -8.5l26 -45q4 -6 2 -13t-8 -11q-4 -2 -9 -2q-10 0 -15 9l-26 45q-4 6 -2 13t8 10.5zM566 49q0 -29 -20.5 -49t-49 -20t-49 20t-20.5 49v17q15 -7 79 -7h1h9q50 0 50 6v-16zM566 115v-30q0 -10 -59 -10h-1
q-59 0 -79 10v31q-50 20 -75.5 62.5t-25.5 98.5q0 73 53.5 124.5t127.5 51.5q72 0 121.5 -51t49.5 -125q0 -54 -30 -98t-82 -64zM687 487l-26 -45q-6 -9 -16 -9q-4 0 -8 2q-7 4 -8.5 11t1.5 13l26 45q4 7 11 8.5t13 -2t8 -10.5t-1 -13zM769 357l-45 -26q-4 -2 -9 -2
q-10 0 -15 8q-4 7 -2 13.5t8 10.5l46 26q6 4 13 2t10.5 -8t1.5 -13t-8 -11z" />
    <glyph glyph-name="uniE623" unicode="&#xe623;" 
d="M444 443h103v-314h-103v314zM511 736q-91 0 -173.5 -35.5t-142.5 -95.5t-95.5 -142.5t-35.5 -173.5t35.5 -173.5t95.5 -142.5t142.5 -95.5t173.5 -35.5t173.5 35.5t142.5 95.5t95.5 142.5t35.5 173.5t-35.5 173.5t-95.5 142.5t-142.5 95.5t-173.5 35.5zM722 154
q0 -30 -31 -30l-100 -30h-174l-109 -40q-15 0 -26.5 8.5t-11.5 22.5v313q0 14 12 26t26 12l109 38h174l100 32q14 0 22.5 -11.5t8.5 -27.5v-313z" />
    <glyph glyph-name="uniE624" unicode="&#xe624;" 
d="M513 353h71v-69h-71v69zM619 144h68v-69h-68v69zM513 250h71v-69h-71v69zM513 144h71v-69h-71v69zM410 353h69v-69h-69v69zM619 353h68v-69h-68v69zM619 250h68v-69h-68v69zM511 736q-91 0 -173.5 -35.5t-142.5 -95.5t-95.5 -142.5t-35.5 -173.5t35.5 -173.5t95.5 -142.5
t142.5 -95.5t173.5 -35.5t173.5 35.5t142.5 95.5t95.5 142.5t35.5 173.5t-35.5 173.5t-95.5 142.5t-142.5 95.5t-173.5 35.5zM722 105q0 -29 -18 -46.5t-47 -17.5h-313q-30 0 -52 18t-22 46v285h452v-285zM722 424h-452v29q0 29 22.5 51.5t51.5 22.5h14v-41q0 -11 7.5 -18.5
t18.5 -7.5t18.5 7.5t7.5 18.5v41h157v-41q0 -11 7.5 -18.5t18.5 -7.5t18.5 7.5t7.5 18.5v41h38q28 0 46.5 -22t18.5 -52v-29zM304 250h72v-69h-72v69zM304 144h72v-69h-72v69zM410 144h69v-69h-69v69zM410 250h69v-69h-69v69zM304 353h72v-69h-72v69z" />
    <glyph glyph-name="uniE625" unicode="&#xe625;" 
d="M812 -141h-209q-9 0 -15.5 6.5t-6.5 16.5v208h-163v-208q0 -9 -7 -16t-16 -7h-209q-9 0 -16 6.5t-7 16.5v371h-76q-15 0 -21 14.5t5 24.5l419 420q7 7 16.5 7t16.5 -7l428 -423q11 -11 5 -25.5t-21 -14.5h-99v-367q0 -9 -7 -16t-17 -7zM627 -95h163v367q0 10 6.5 16.5
t15.5 6.5h66l-371 368l-364 -364h43q10 0 16.5 -6.5t6.5 -16.5v-371h163v209q0 10 6.5 16.5t16.5 6.5h208q10 0 17 -7t7 -16v-209z" />
    <glyph glyph-name="uniE626" unicode="&#xe626;" 
d="M847 677h-80v-63q0 -32 -22 -54t-53.5 -22t-53.5 22t-22 54v63h-210v-63q0 -32 -22.5 -54t-53.5 -22t-53.5 22t-22.5 54v63h-73q-47 0 -82 -37.5t-35 -84.5v-589q0 -47 34.5 -77t82.5 -30h666q47 0 78.5 30t31.5 77v589q0 48 -32 85t-78 37zM919 -34q0 -31 -20 -50
t-52 -19h-666q-32 0 -55.5 19t-23.5 50v463h817v-463zM919 468h-817v87q0 32 24 58t55 26h35v-25q0 -47 33.5 -80.5t80.5 -33.5t80.5 33.5t33.5 80.5v25h134v-25q0 -47 33 -80.5t80 -33.5t80.5 33.5t33.5 80.5v25h42q30 0 51 -26t21 -58v-87zM330 586q8 0 13.5 6t5.5 13v95
q0 8 -5.5 13.5t-13.5 5.5t-13.5 -5.5t-5.5 -13.5v-95q0 -7 5.5 -13t13.5 -6zM691 586q8 0 14 6t6 13v95q0 8 -6 13.5t-14 5.5t-13.5 -5.5t-5.5 -13.5v-95q0 -7 5.5 -13t13.5 -6zM280 -11q2 -1 5 1t4 2h166q17 0 17 19t-17 19h-137q46 33 72 63q2 2 11.5 12.5t14.5 17.5
q17 23 23 35q11 19 17 36q6 19 6 38q0 20 -6 37t-17.5 29t-28.5 19t-39 7q-49 0 -73 -28t-24 -76q0 -14 4 -18.5t17 -4.5q11 0 15 5t4 18q0 29 13 48t41 19q25 0 39 -16t14 -43q0 -20 -8 -40t-20.5 -39t-27.5 -37q-16 -17 -32 -33q-15 -16 -29 -29.5t-24 -23.5q-4 -6 -4 -12
q-3 -7 -3.5 -13t1.5 -11q1 -1 3 -0.5t3 -0.5zM568 5q12 -13 31 -21.5t47 -8.5q23 0 42.5 6.5t34 20t22 31.5t7.5 41q0 20 -7 34.5t-19 25t-26.5 16t-28.5 7.5q11 5 22 12.5t20.5 18t15 24t5.5 30.5q0 21 -7.5 36.5t-20 25.5t-28.5 15t-34 5q-19 0 -35 -6t-28.5 -16.5
t-19 -26.5t-6.5 -36q0 -10 4.5 -16.5t11.5 -6.5q10 0 15 6t5 16q0 24 14.5 38.5t37.5 14.5q22 0 38 -13.5t16 -39.5q0 -12 -5 -23.5t-14 -20t-20.5 -14t-24.5 -5.5q-16 0 -19 -11q-3 -8 0 -13q2 -7 8 -10.5t13 -3.5q16 0 30 -4t25 -12t17.5 -20t6.5 -29q0 -13 -4.5 -25
t-13 -20t-21 -13t-26.5 -5q-17 0 -29.5 5t-20 12.5t-12 17t-4.5 19.5q-1 10 -7.5 14.5t-12.5 4.5q-8 0 -13 -6t-6 -14q0 -13 6 -28.5t18 -28.5z" />
    <glyph glyph-name="uniE627" unicode="&#xe627;" 
d="M252 619l-17 21q-18 -14 -35 -31l19 -19q16 15 33 29zM207 578l-20 18q-16 -17 -30 -35l21 -16q14 17 29 33zM417 697l-6 27q-23 -6 -45 -13l8 -26q21 8 43 12zM303 653l-13 23q-21 -11 -40 -25l16 -22q18 13 37 24zM358 679l-10 25q-21 -8 -42 -19l12 -24q20 10 40 18z
M477 707l-2 27q-23 -2 -46 -7l5 -26q21 4 43 6zM97 362l-26 5q-4 -23 -6 -46l27 -2q2 22 5 43zM91 289v12l-27 1v-13q0 -17 2 -34l26 2q-1 16 -1 32zM136 478l-24 12q-10 -21 -19 -42l25 -10q8 20 18 40zM112 421l-25 9q-7 -22 -12 -45l26 -6q5 22 11 42zM168 530l-22 16
q-14 -19 -25 -39l23 -14q11 20 24 37zM851 536l21 16q-14 19 -29 36l-20 -18q15 -16 28 -34zM883 484l24 13q-11 20 -24 40l-22 -15q12 -19 22 -38zM908 428l25 9q-8 22 -18 43l-24 -11q9 -20 17 -41zM94 240l-27 -3q3 -23 8 -46l26 6q-5 21 -7 43zM511 708q13 0 27 -1l2 27
q-14 1 -29 1h-17l1 -27h16zM931 308l27 1q-1 24 -5 47l-26 -4q3 -22 4 -44zM924 369l26 5q-4 23 -11 45l-26 -8q6 -20 11 -42zM667 707q-22 8 -44 14l-7 -26q21 -5 42 -13zM605 725q-23 5 -46 7l-3 -26q22 -2 43 -7zM811 583l19 18q-16 17 -34 32l-17 -21q17 -14 32 -29z
M726 680q-20 11 -41 20l-11 -25q20 -8 40 -19zM781 644q-18 15 -38 27l-14 -23q18 -12 36 -25zM745 -59l15 -23q19 13 37 28l-17 21q-17 -14 -35 -26zM105 180l-25 -7q6 -23 14 -44l25 9q-8 21 -14 42zM635 -112l7 -25q23 6 44 16l-10 24q-20 -8 -41 -15zM793 -22l18 -20
q17 16 33 33l-20 18q-15 -16 -31 -31zM575 -125l4 -27q23 4 46 10l-7 25q-22 -5 -43 -8zM899 127l25 -10q9 21 15 43l-25 8q-7 -21 -15 -41zM918 185l26 -7q6 23 9 46l-26 4q-3 -22 -9 -43zM927 293v-4q0 -1 0.5 -22t-0.5 -22l25 -2q1 10 1 46v4h-26zM871 72l23 -13
q12 20 22 41l-24 11q-10 -20 -21 -39zM835 22l21 -17q15 18 28 38l-22 15q-13 -19 -27 -36zM514 -130v-27q23 0 46 3l-2 26q-22 -2 -44 -2zM692 -90l11 -24q21 10 41 22l-14 23q-19 -11 -38 -21zM233 -25l-18 -20q18 -16 37 -29l15 22q-17 12 -34 27zM190 19l-20 -18
q15 -18 32 -34l18 20q-16 15 -30 32zM267 -85q20 -12 41 -23l12 24q-20 10 -38 22zM126 122l-25 -11q9 -21 21 -41l23 13q-11 19 -19 39zM154 68l-23 -14q13 -20 27 -38l21 16q-13 17 -25 36zM385 -139q23 -7 46 -11l4 27q-21 4 -42 10zM449 -153q23 -3 46 -4l1 27
q-22 1 -43 4zM324 -116q21 -10 44 -17l8 25q-21 7 -40 16zM470 61h72v-71h-72v71zM605 403q0 -44 -66 -106q-69 -72 -69 -121v-52h64v61q0 27 52 76q75 71 75 139q-10 137 -148 143q-160 -9 -166 -169h64q1 59 26.5 88t76.5 32q85 -6 91 -91z" />
    <glyph glyph-name="uniE628" unicode="&#xe628;" 
d="M511 736q-90 0 -172 -35.5t-141.5 -95.5t-95 -142.5t-35.5 -173.5t35.5 -173.5t95 -142.5t141.5 -95.5t172 -35.5t172 35.5t141.5 95.5t95 142.5t35.5 173.5t-35.5 173.5t-95 142.5t-141.5 95.5t-172 35.5zM511 -113q-108 0 -200 54t-145.5 146.5t-53.5 201.5t53.5 201.5
t145.5 146.5t200 54t200 -54t145.5 -146.5t53.5 -201.5t-53.5 -201.5t-145.5 -146.5t-200 -54zM694 414l-215 -215l-124 124q-13 13 -31.5 13t-31.5 -13t-13 -31.5t13 -31.5l155 -156q13 -13 31.5 -13t31.5 13l247 247q13 13 13 31.5t-13 31.5t-31.5 13t-31.5 -13z" />
    <glyph glyph-name="uniE629" unicode="&#xe629;" 
d="M464 -44q-75 0 -144 28q-72 30 -127 86t-84 129q-27 70 -27 146t27 147q29 72 84 128.5t127 85.5q69 29 144 29t144 -29q72 -29 127 -85.5t84 -128.5q27 -71 27 -147t-27 -146q-29 -73 -84 -129t-127 -86q-69 -28 -144 -28zM464 671q-132 0 -225 -95q-61 -63 -83 -147
t0 -168t83 -146q93 -95 225 -95t225 95q46 47 70 108t24 122.5t-24 122.5t-70 108q-93 95 -225 95zM895 -159q-21 0 -35 15l-172 175q-14 14 -13.5 34t14.5 34t34 13.5t34 -14.5l172 -175q14 -14 13.5 -34t-14.5 -34t-33 -14z" />
    <glyph glyph-name="uniE62A" unicode="&#xe62a;" 
d="M571 3q-27 -20 -59 -20t-59 20q-28 20 -43 0q-7 -8 -5 -45.5t10 -48.5q7 -6 11 -4t13.5 8t16.5 6q21 1 40 -56q6 -20 16 -21q10 1 16 21q19 58 40 57q7 -1 16.5 -7t13.5 -8t11 4q8 11 9.5 48.5t-4.5 46.5q-16 19 -43 -1zM762 236l-8 14q-7 13 -11.5 19t-21 24t-41.5 40
q0 65 -17 129.5t-41.5 111t-49.5 82.5t-42.5 57t-17.5 23q-7 -4 -24.5 -23t-42.5 -57t-47.5 -83.5t-38 -110t-15.5 -129.5q-20 -19 -34 -33t-22.5 -24.5t-12 -15.5t-8 -14t-5.5 -12q-16 -29 -13.5 -112.5t17.5 -110.5q21 -36 65 1q3 2 20 21.5t32.5 34.5t21.5 13
q15 3 32 -13q33 -31 75 -33q15 2 39 12t36 21q7 8 15 11t13 3h4q6 1 21.5 -14t32.5 -34t21 -22q43 -36 64 1q16 26 17.5 110t-13.5 113zM511.5 324.5q-33.5 -0.5 -57 23t-23.5 57t23.5 57t56.5 23.5t56.5 -23.5t23.5 -56.5t-23 -56.5t-56.5 -24zM512 35z" />
    <glyph glyph-name="uniE62B" unicode="&#xe62b;" 
d="M862 809h-681q-53 0 -85 -31t-32 -83v-510q0 -50 40 -74.5t98 -24.5h195l7 -85l201 85h257q96 0 96 120v489q0 114 -96 114zM862 129h-257q-3 0 -6 -1.5t-6 -3.5t-5 -3l-146 -64l-2 30q-2 17 -14 29.5t-29 12.5h-195h-3q-92 -1 -92 56v510q0 35 19.5 53t54.5 18h681
q32 0 42.5 -16.5t10.5 -54.5v-489q0 -1 0.5 -7t0 -9t-1 -9.5t-1 -10.5t-2.5 -10t-4.5 -10t-7 -8.5t-9.5 -7t-12.5 -4t-15.5 -1.5zM295 451.5q0 -17.5 12.5 -30t30 -12.5t30 12.5t12.5 30t-12.5 30t-30 12.5t-30 -12.5t-12.5 -30zM487 451.5q0 -17.5 12.5 -30t30 -12.5
t30 12.5t12.5 30t-12.5 30t-30 12.5t-30 -12.5t-12.5 -30zM678 451.5q0 -17.5 12.5 -30t30 -12.5t30 12.5t12.5 30t-12.5 30t-30 12.5t-30 -12.5t-12.5 -30z" />
    <glyph glyph-name="uniE62C" unicode="&#xe62c;" 
d="M700 777q14 -8 24.5 -36.5t12.5 -59.5t-14 -56t-48 -27h-12q-40 0 -67 16.5t-40 42.5t-18.5 58t-4 63.5t5 58t7.5 43.5l4 16q-56 -17 -97 -45.5t-62 -60.5t-33.5 -67.5t-14.5 -67.5t-0.5 -57.5t4.5 -40.5l3 -15q-1 1 -4 4.5t-11 14.5t-14 22.5t-15 30t-12 36.5t-6 42
t3 47q-32 -20 -53 -55t-28 -70.5t-9 -67.5t-0.5 -52.5t2.5 -20.5q-2 1 -4.5 2.5t-10 6.5t-13 11.5t-13 17t-11 23t-6 30t2.5 38.5q-46 -85 -46 -189q0 -112 54.5 -206.5t149.5 -149.5t206 -55t206 55t149.5 149.5t54.5 206.5q0 117 -60.5 214.5t-161.5 149.5z" />
    <glyph glyph-name="uniE62D" unicode="&#xe62d;" 
d="M690 292q4 -3 10 -3q9 0 14 7q48 66 48 149q0 104 -73.5 177.5t-178 73.5t-178.5 -73.5t-74 -177.5q0 -82 48 -147q4 -6 11 -7t13 3t7 11t-3 13q-41 57 -41 127q0 89 63.5 153t153.5 64t154 -64t64 -153q0 -71 -42 -128q-4 -6 -3 -13t7 -12zM116 196q2 0 5 1q52 15 89 15
q20 0 57 -9q33 -7 48 -7q16 0 48 8t45 8q14 0 47 -8q37 -8 55.5 -8t51.5 8q30 8 45 8q14 0 46 -8q36 -8 53.5 -8t49.5 8q30 8 46 8q34 0 102 -15q7 -2 13.5 2t8 11t-2.5 13t-11 7q-72 16 -110 16q-20 0 -55 -8q-28 -7 -41 -7q-14 0 -45 7q-36 8 -54.5 8t-52.5 -8
q-29 -7 -43 -7q-15 0 -49 7q-36 8 -54 8t-53 -8q-29 -7 -40 -7t-40 6q-41 9 -65 9q-42 0 -99 -16q-7 -2 -10.5 -8t-1.5 -13q4 -13 17 -13zM912 133q-72 16 -110 16q-20 0 -55 -9q-28 -7 -41 -7q-14 0 -45 8q-36 8 -54.5 8t-52.5 -8q-29 -8 -43 -8q-15 0 -49 8q-36 8 -54 8
t-53 -9q-28 -7 -40 -7q-11 0 -40 7q-41 9 -65 9q-42 0 -99 -16q-7 -2 -10.5 -8.5t-1.5 -13.5q4 -12 17 -12h5q52 15 89 15q20 0 57 -8q33 -7 48 -7q16 0 48 8q32 7 45 7q14 0 47 -7q37 -8 55.5 -8t51.5 8q30 7 45 7q14 0 46 -7q36 -8 53.5 -8t49.5 8q30 7 46 7q34 0 102 -15
q7 -1 13.5 2.5t8 10.5t-2.5 13t-11 8zM912 36q-72 15 -110 15q-20 0 -55 -8q-28 -7 -41 -7q-14 0 -45 7q-36 8 -54.5 8t-52.5 -8q-29 -7 -43 -7q-15 0 -49 7q-36 8 -54 8t-53 -8q-28 -7 -40 -7q-11 0 -40 6q-41 9 -65 9q-42 0 -99 -16q-7 -2 -10.5 -8t-1.5 -13q4 -13 17 -13
q2 0 5 1q52 15 89 15q20 0 57 -9q33 -7 48 -7q16 0 48 8t45 8q14 0 47 -7q37 -9 55.5 -9t51.5 9q30 7 45 7q14 0 46 -8q36 -8 53.5 -8t49.5 8q30 8 46 8q34 0 102 -15q7 -2 13.5 2t8 11t-2.5 13t-11 8zM495 773q7 0 12 5.5t5 12.5v86q0 8 -5 13t-12 5t-12.5 -5t-5.5 -13v-86
q0 -7 5.5 -12.5t12.5 -5.5zM798 555q0 -7 5 -12t12 -5h52q7 0 12 5t5 12t-5 12t-12 5h-52q-7 0 -12 -5t-5 -12zM157 538h52q7 0 12 5t5 12t-5 12t-12 5h-52q-7 0 -12 -5t-5 -12t5 -12t12 -5zM354 736q5 -9 15 -9q5 0 9 3q6 3 8 10t-2 13l-43 75q-4 6 -11 8t-13 -1.5
t-8 -10.5t2 -13zM646 730q4 -3 9 -3q10 0 15 9l43 75q4 6 2 13t-8 10.5t-13 1.5t-11 -8l-43 -75q-4 -6 -2 -13t8 -10zM180 685l75 -44q4 -2 9 -2q10 0 15 9q3 6 1.5 13t-8.5 11l-75 43q-6 3 -13 1.5t-10.5 -8t-1.5 -13.5t8 -10zM760 639q5 0 9 2l75 44q6 3 8 10t-1.5 13.5
t-10.5 8t-13 -1.5l-75 -43q-7 -4 -8.5 -11t1.5 -13q5 -9 15 -9z" />
    <glyph glyph-name="uniE62E" unicode="&#xe62e;" 
d="M821 2h-207q-28 0 -28 11v233h-169v-233q0 -8 -1.5 -9.5t-8.5 -1.5h-207q-28 0 -28 11v384h-88q-14 0 -17 7q-5 11 4 19l423 424q6 5 13.5 5t13.5 -6l432 -423q9 -9 4.5 -20.5t-22.5 -11.5l-105 -1v-377q0 -8 -1 -9.5t-8 -1.5zM624 40h169v369q0 8 7.5 13.5t15.5 5.5h76
l-385 382l-378 -376h71q10 0 10 -26v-368h169v217q0 8 10 17t18 9h207q10 0 10 -26v-217z" />
    <glyph glyph-name="uniE62F" unicode="&#xe62f;" 
d="M511 736q-91 0 -173.5 -35.5t-142.5 -95.5t-95.5 -142.5t-35.5 -173.5t35.5 -173.5t95.5 -142.5t142.5 -95.5t173.5 -35.5t173.5 35.5t142.5 95.5t95.5 142.5t35.5 173.5t-35.5 173.5t-95.5 142.5t-142.5 95.5t-173.5 35.5zM511 -94q-104 0 -192 51.5t-139.5 139.5
t-51.5 192t51.5 192t139.5 139.5t192 51.5t192 -51.5t139.5 -139.5t51.5 -192t-51.5 -192t-139.5 -139.5t-192 -51.5zM532 243v306q0 13 -9.5 22.5t-23 9.5t-22.5 -9.5t-9 -22.5v-332l162 -163q10 -9 23 -9t22.5 9t9.5 22.5t-10 22.5z" />
    <glyph glyph-name="uniE630" unicode="&#xe630;" 
d="M65 185.5q0 20.5 15 35.5l397 397q14 14 35 14t35 -14l397 -397q15 -15 15 -35.5t-14.5 -35t-35 -14.5t-35.5 14l-362 362l-362 -362q-15 -14 -35.5 -14t-35 14.5t-14.5 35z" />
    <glyph glyph-name="uniE631" unicode="&#xe631;" 
d="M777 179q44 0 55.5 24t-16.5 58l-237 294q-28 34 -67 34t-67 -34l-237 -294q-28 -34 -16.5 -58t55.5 -24h530z" />
    <glyph glyph-name="uniE632" unicode="&#xe632;" 
d="M247 589q-44 0 -55.5 -24t16.5 -58l237 -294q28 -34 67 -34t67 34l237 294q28 34 16.5 58t-55.5 24h-530z" />
    <glyph glyph-name="uniE633" unicode="&#xe633;" 
d="M512 735q-91 0 -173.5 -35.5t-142.5 -95.5t-95.5 -142.5t-35.5 -173.5t35.5 -173.5t95.5 -142.5t142.5 -95.5t173.5 -35.5t173.5 35.5t142.5 95.5t95.5 142.5t35.5 173.5t-35.5 173.5t-95.5 142.5t-142.5 95.5t-173.5 35.5zM512 -144q-117 0 -216.5 58t-157.5 157.5
t-58 216.5t58 216.5t157.5 157.5t216.5 58t216.5 -58t157.5 -157.5t58 -216.5t-58 -216.5t-157.5 -157.5t-216.5 -58zM512 706q-114 0 -210 -56t-152 -152t-56 -210q0 -104 47.5 -194t129.5 -148q-3 38 -3 87q0 16 1 29t4.5 25t6 20.5t10 19t10.5 15.5t14 16l14 14
q4 4 18 16.5t19 15.5q58 -69 148 -69q44 0 82.5 18.5t65.5 50.5q4 -3 18.5 -16t18 -16t14.5 -14t14 -16t10.5 -15.5t9.5 -19t6 -20.5t5 -25t1 -29q0 -48 -3 -86q81 58 128 147.5t47 193.5q0 114 -56 210t-152 152t-210 56zM512.5 191q-71.5 0 -122 50.5t-50.5 122
t50.5 122.5t122 51t122.5 -51t51 -122.5t-51 -122t-122.5 -50.5zM529 34q32 26 32 37q0 10 -18 29t-29 19q-10 0 -30 -19t-20 -29q0 -12 34 -36q-34 -16 -34 -28q0 -70 7 -135q21 -2 41 -2q21 0 42 2q8 66 8 135q0 12 -33 27z" />
    <glyph glyph-name="uniE634" unicode="&#xe634;" 
d="M700 776q14 -8 24.5 -36.5t12.5 -59.5t-14 -56t-48 -27h-12q-126 0 -129 161q-2 70 16 137q-56 -17 -97 -45.5t-62 -60.5t-33.5 -67.5t-14.5 -67.5t-0.5 -57.5t4.5 -41t3 -14.5q-1 1 -4 4.5t-11 14.5t-14 22.5t-15 29.5t-12 36.5t-6 42.5t3 47q-32 -20 -53 -55t-28 -70.5
t-9 -67.5t-0.5 -52.5t2.5 -20.5q-2 1 -4.5 2.5t-10 6.5t-13 11t-13 17t-11 23.5t-6 30t2.5 38.5q-46 -85 -46 -189q0 -112 54.5 -206.5t149.5 -149.5t206 -55t206 55t149.5 149.5t54.5 206.5q0 117 -60.5 214.5t-161.5 149.5zM512 42q-100 0 -185 49.5t-134.5 135
t-49.5 185.5q0 28 3 52q19 -20 40 -29q8 -4 17 -4q14 0 25 9q19 14 15 38q-1 8 -2 24.5t2 55.5t14 70q9 -31 25.5 -60.5t24.5 -39.5t14 -16q12 -12 29 -12q11 0 21 5q12 7 17.5 20t1.5 26q-1 6 -3 14t-4 29t-1 42t7 48.5t18 51.5t35 49t54 43q-17 -142 38 -214
q45 -58 129 -58h14q37 2 62 23.5t34 58.5q4 14 4 31q50 -52 77 -118t27 -139q0 -100 -49.5 -185.5t-134.5 -135t-185 -49.5z" />
    <glyph glyph-name="uniE635" unicode="&#xe635;" 
d="M852 809h-680q-107 0 -107 -106v-510q0 -51 36.5 -79t91.5 -28h195l7 -85l200 85h257q51 0 79 36.5t28 91.5v489q0 107 -107 106zM328.5 417q-17.5 0 -30 12.5t-12.5 30t12.5 30t30 12.5t30 -12.5t12.5 -30t-12.5 -30t-30 -12.5zM520 417q-18 0 -30.5 12.5t-12.5 30
t12.5 30t30.5 12.5t30 -12.5t12 -30t-12 -30t-30 -12.5zM711.5 417q-17.5 0 -30 12.5t-12.5 30t12.5 30t30 12.5t30 -12.5t12.5 -30t-12.5 -30t-30 -12.5z" />
    <glyph glyph-name="uniE636" unicode="&#xe636;" 
d="M951 423l-431 422q-6 6 -13.5 6t-13.5 -6l-422 -424q-8 -8 -4 -17q3 -8 17 -8h106v-382q0 -8 1 -9.5t9 -1.5h206q29 0 29 11v232h168v-232q0 -8 1 -9.5t8 -1.5h207q29 0 29 11v377h95q10 0 15 12q4 10 -7 20z" />
    <glyph glyph-name="uniE637" unicode="&#xe637;" 
d="M116 196q2 0 5 1q52 15 89 15q20 0 57 -9q33 -7 48 -7q16 0 48 8q25 6 38 7q51 -23 107 -23t107 23q13 -1 38 -7q36 -8 53.5 -8t49.5 8q30 8 46 8q34 0 102 -15q7 -2 13.5 2t8 11t-2.5 13t-11 7q-72 16 -110 16q-20 0 -55 -8q-28 -7 -41 -7q-14 0 -45 7q49 36 77 90.5
t28 117.5q0 107 -75.5 182.5t-182.5 75.5t-182.5 -75.5t-75.5 -182.5q0 -63 28.5 -117.5t77.5 -90.5h-1q-28 -7 -40 -7q-11 0 -40 6q-41 9 -65 9q-42 0 -99 -16q-7 -2 -10.5 -8t-1.5 -13q4 -13 17 -13zM912 133q-72 16 -110 16q-20 0 -55 -9q-28 -7 -41 -7q-14 0 -45 8
q-36 8 -54.5 8t-52.5 -8q-29 -8 -43 -8q-15 0 -49 8q-36 8 -54 8t-53 -9q-28 -7 -40 -7q-11 0 -40 7q-41 9 -65 9q-42 0 -99 -16q-7 -2 -10.5 -8.5t-1.5 -13.5q4 -12 17 -12h5q52 15 89 15q20 0 57 -8q33 -7 48 -7q16 0 48 8q32 7 45 7q14 0 47 -7q37 -8 55.5 -8t51.5 8
q30 7 45 7q14 0 46 -7q36 -8 53.5 -8t49.5 8q30 7 46 7q34 0 102 -15q7 -1 13.5 2.5t8 10.5t-2.5 13t-11 8zM912 36q-72 15 -110 15q-20 0 -55 -8q-28 -7 -41 -7q-14 0 -45 7q-36 8 -54.5 8t-52.5 -8q-29 -7 -43 -7q-15 0 -49 7q-36 8 -54 8t-53 -8q-28 -7 -40 -7
q-11 0 -40 6q-41 9 -65 9q-42 0 -99 -16q-7 -2 -10.5 -8t-1.5 -13q4 -13 17 -13q2 0 5 1q52 15 89 15q20 0 57 -8q33 -8 48 -8q16 0 48 8t45 8q14 0 47 -7q37 -9 55.5 -9t51.5 9q30 7 45 7q14 0 46 -8q36 -8 53.5 -8t49.5 8q30 8 46 8q34 0 102 -15q7 -2 13.5 2t8 11
t-2.5 13t-11 8zM504 773q7 0 11.5 5t4.5 13v86q0 8 -4.5 13t-11.5 5t-11.5 -5t-4.5 -13v-86q0 -8 4.5 -13t11.5 -5zM798 554.5q0 -7.5 5 -12.5t12 -5h52q7 0 12 5t5 12.5t-5 12.5t-12 5h-52q-7 0 -12 -5t-5 -12.5zM157 537h52q7 0 12 5t5 12.5t-5 12.5t-12 5h-52
q-7 0 -12 -5t-5 -12.5t5 -12.5t12 -5zM354 736q5 -9 15 -9q5 0 9 3q6 3 8 10t-2 13l-43 75q-4 6 -11 8t-13 -1.5t-8 -10.5t2 -13zM646 730q4 -3 9 -3q10 0 15 9l43 75q4 6 2 13t-8 10.5t-13 1.5t-11 -8l-43 -75q-4 -6 -2 -13t8 -10zM180 685l75 -44q4 -2 9 -2q10 0 15 9
q3 6 1.5 13t-8.5 11l-75 43q-6 3 -13 1.5t-10.5 -8t-1.5 -13.5t8 -10zM760 639q5 0 9 2l75 44q6 3 8 10t-1.5 13.5t-10.5 8t-13 -1.5l-75 -43q-7 -4 -8.5 -11t1.5 -13q5 -9 15 -9z" />
    <glyph glyph-name="uniE638" unicode="&#xe638;" 
d="M893 450h-247l-224 350h-89l112 -350h-247l-67 87h-67l45 -153l-45 -153h67l67 87h247l-112 -350h89l224 350h247q27 0 47 20t20 46t-20 46t-47 20z" />
    <glyph glyph-name="uniE639" unicode="&#xe639;" 
d="M751 42h20q21 0 37 15.5t16 36.5v580q0 21 -16 36.5t-37 15.5h-160q0 51 -23 78t-78 27q-54 0 -79.5 -25.5t-25.5 -79.5h-156q-22 0 -37.5 -15.5t-15.5 -36.5v-580q0 -21 15.5 -36.5t37.5 -15.5h20l-73 -105h93l88 105h270l84 -105h97l-77 105v0zM249 223q0 24 16 24h112
q8 0 11.5 -4t4 -8t0.5 -12q0 -24 -16 -24h-112q-16 0 -16 24v0zM458 304h-209v273q0 16 10.5 28t25.5 12h173v-313v0zM510 674q-21 0 -36.5 15.5t-15.5 36.5t15.5 36.5t36.5 15.5t36.5 -15.5t15.5 -36.5q0 -22 -14.5 -37t-37.5 -15v0zM562 617h173q16 0 26 -11t10 -29v-278
h-209v318v0zM647 199q-16 0 -16 24t16 24h112q16 0 16 -24t-16 -24h-112v0zM647 199z" />
    <glyph glyph-name="uniE63A" unicode="&#xe63a;" 
d="M897 621h-17v87q0 22 -14 44t-33 32q-4 2 -11.5 5t-36 11t-62 14.5t-90.5 11.5t-121 5t-120.5 -5t-91.5 -12t-61 -13.5t-37 -11.5l-11 -5q-19 -10 -33 -32t-14 -44v-87h-17q-22 0 -37.5 -15.5t-15.5 -37.5v-53q0 -21 15.5 -36.5t37.5 -15.5h17v-403q0 -17 10 -30.5
t25 -19.5v-3q0 -29 20.5 -49.5t49.5 -20.5t49.5 20.5t20.5 49.5h386q0 -29 20.5 -49.5t49.5 -20.5t49.5 20.5t20.5 49.5v3q15 6 25 19.5t10 30.5v403h17q22 0 37.5 15.5t15.5 36.5v53q0 22 -15.5 37.5t-37.5 15.5zM337 743q0 7 5 12.5t12 5.5h316q7 0 12 -5.5t5 -12.5v-35
q0 -7 -5 -12t-12 -5h-316q-7 0 -12 5t-5 12v35zM267 63q-19 0 -32.5 13.5t-13.5 32.5t13.5 32.5t32.5 13.5t32.5 -13.5t13.5 -32.5t-13.5 -32.5t-32.5 -13.5zM801 63q-19 0 -32.5 13.5t-13.5 32.5t13.5 32.5t32.5 13.5t32.5 -13.5t13.5 -32.5t-13.5 -32.5t-32.5 -13.5z
M810 279q0 -7 -5.5 -12.5t-12.5 -5.5h-560q-7 0 -12.5 5.5t-5.5 12.5v324q0 7 5.5 12.5t12.5 5.5h560q7 0 12.5 -5.5t5.5 -12.5v-324z" />
    <glyph glyph-name="uniE63B" unicode="&#xe63b;" 
d="M659 -28q-29 0 -84.5 17.5t-83.5 17.5t-84 -17.5t-84 -17.5q-63 0 -137 41q-25 13 -36 -2t7 -27q2 -1 3 -2q6 -5 18 -12.5t55 -20t93 -12.5q30 0 82 17.5t83 17.5t83.5 -17.5t84.5 -17.5q46 0 88 11.5t60 22.5l19 11q20 13 6 28q-15 14 -36 0q-4 -2 -17 -9.5t-17.5 -10
t-16.5 -7.5t-22.5 -6.5t-27 -3t-36.5 -1.5zM309 587l203 81l203 -81v162h-406v-162zM451 831q-18 0 -28 -10.5t-11 -20.5l-2 -10h204q0 2 -0.5 4.5t-2.5 9.5t-6 12.5t-12.5 10t-19.5 4.5h-122zM147 490l109 -458q2 -3 6 -6t23 -9t47 -6q30 0 81.5 16t84.5 16q38 0 88.5 -16
t85.5 -16q32 0 56 5.5t32 10.5l8 5l109 458l-365 138z" />
    <glyph glyph-name="uniE63C" unicode="&#xe63c;" 
d="M943 336l-155 155q-11 10 -25.5 10t-24.5 -10l-3 -3q-10 -10 -10 -25t10 -25l97 -97h-731q-15 0 -25.5 -10t-10.5 -25v-4q0 -14 10.5 -24.5t25.5 -10.5h822q15 0 25.5 10.5t10.5 24.5v4q0 19 -16 30z" />
    <glyph glyph-name="uniE63D" unicode="&#xe63d;" 
d="M247 589q-44 0 -55.5 -24t16.5 -58l237 -294q28 -34 67 -34t67 34l237 294q28 34 16.5 58t-55.5 24h-530z" />
    <glyph glyph-name="uniE63E" unicode="&#xe63e;" 
d="M512 831q-91 0 -173.5 -35.5t-142.5 -95.5t-95.5 -142.5t-35.5 -173.5t35.5 -173.5t95.5 -142.5t142.5 -95.5t173.5 -35.5t173.5 35.5t142.5 95.5t95.5 142.5t35.5 173.5t-35.5 173.5t-95.5 142.5t-142.5 95.5t-173.5 35.5zM764 473l-283 -285q-13 -13 -31 -13t-32 13
l-164 164q-13 13 -13 32t13 32t31.5 13t31.5 -13l133 -132l251 252q13 13 31.5 13t31.5 -13t13 -31.5t-13 -31.5z" />
    <glyph glyph-name="uniE63F" unicode="&#xe63f;" 
d="M512 831q-91 0 -173.5 -35.5t-142.5 -95.5t-95.5 -142.5t-35.5 -173.5t35.5 -173.5t95.5 -142.5t142.5 -95.5t173.5 -35.5t173.5 35.5t142.5 95.5t95.5 142.5t35.5 173.5t-35.5 173.5t-95.5 142.5t-142.5 95.5t-173.5 35.5zM678 270q13 -13 13 -31.5t-13 -31.5t-31.5 -13
t-31.5 13l-104 104l-104 -104q-14 -13 -32.5 -13t-31.5 13t-13 31.5t13 31.5l104 104l-104 104q-13 13 -13 31.5t13 31.5t31.5 13t32.5 -13l104 -104l104 104q13 13 31.5 13t31.5 -13t13 -31.5t-13 -31.5l-104 -104z" />
    <glyph glyph-name="uniE640" unicode="&#xe640;" 
d="M512 834q-91 0 -173.5 -36t-142.5 -96t-95.5 -143.5t-35.5 -174.5t35.5 -174.5t95.5 -143.5t142.5 -96t173.5 -36t173.5 36t142.5 96t95.5 143.5t35.5 174.5t-35.5 174.5t-95.5 143.5t-142.5 96t-173.5 36zM512 -21q-109 0 -201.5 54.5t-146.5 147.5t-54 203t54 203
t146.5 147.5t201.5 54.5t201.5 -54.5t146.5 -147.5t54 -203t-54 -203t-146.5 -147.5t-201.5 -54.5zM696 510l-217 -217l-124 125q-13 13 -32 13t-32 -13t-13 -31.5t13 -32.5l157 -156q13 -13 31.5 -13t31.5 13l249 248q13 14 13 32.5t-13.5 31.5t-32 13t-31.5 -13z" />
    <glyph glyph-name="uniE641" unicode="&#xe641;" 
d="M512 831q-91 0 -173.5 -35.5t-142.5 -95.5t-95.5 -142.5t-35.5 -173.5t35.5 -173.5t95.5 -142.5t142.5 -95.5t173.5 -35.5t173.5 35.5t142.5 95.5t95.5 142.5t35.5 173.5t-35.5 173.5t-95.5 142.5t-142.5 95.5t-173.5 35.5zM735 266q-5 -15 -14 -15q-3 0 -5.5 2t-5 4.5
t-5 7t-4 7t-3.5 6.5t-2 5h-1l-1 -1q-16 -40 -35 -58q5 -5 16 -10t18 -11t9 -17q0 -1 -0.5 -4t-1.5 -5q-17 -25 -79 -25q-14 0 -29 2.5t-25.5 5.5t-26.5 8q-4 1 -6 1q-4 1 -12 1.5t-11 0.5q-10 -12 -32.5 -17t-43.5 -5q-10 0 -18.5 0.5t-24 2.5t-26.5 5t-19.5 10t-8.5 17
t3 15t11 13l10 4q8 2 13 3h4v1v1q-13 3 -28.5 27.5t-18.5 40.5l-2 1q-1 0 -3 -5q-4 -11 -13.5 -20t-20.5 -10q-1 0 -1.5 1.5t-1.5 1.5q-6 14 -6 26q0 71 65 121q-2 5 -2 14q0 5 3 12.5t6 11.5q0 6 2.5 14t5.5 11q0 36 24 75t57 54q36 17 84 17q34 0 69 -14q13 -5 23.5 -12
t18.5 -14.5t14.5 -18t10.5 -19.5t8 -22t7 -23t6 -25v-2q14 -21 14 -39q0 -3 -2 -10t-2 -10v-1v-2h1q21 -30 32 -56t11 -54q0 -11 -5 -26z" />
    <glyph glyph-name="uniE642" unicode="&#xe642;" 
d="M583 376q-7 6 -17 6q-7 0 -13 -6t-6 -13t6 -13t13 -6q10 0 17 5.5t7 13.5q0 7 -7 13zM485.5 478q8.5 -7 19.5 -7t17 6.5t6 17t-6 17t-17 6.5t-19.5 -6.5t-8.5 -16.5t8.5 -17zM373 518q-11 0 -19.5 -6.5t-8.5 -16.5t8.5 -17t19.5 -7t17.5 6.5t6.5 17t-6.5 17t-17.5 6.5z
M686.5 376q-6.5 6 -16.5 6q-7 0 -13 -6t-6 -13t6 -13t13 -6q10 0 16.5 5.5t6.5 13.5q0 7 -6.5 13zM512 831q-91 0 -173.5 -35.5t-142.5 -95.5t-95.5 -142.5t-35.5 -173.5t35.5 -173.5t95.5 -142.5t142.5 -95.5t173.5 -35.5t173.5 35.5t142.5 95.5t95.5 142.5t35.5 173.5
t-35.5 173.5t-95.5 142.5t-142.5 95.5t-173.5 35.5zM434 278q-6 0 -12.5 0.5t-14.5 1.5q-7 1 -12 2q-3 0 -13.5 2.5t-13.5 2.5l-65 -33l18 57q-75 53 -75 127q0 44 25.5 81t68.5 58t94 21q46 0 86.5 -17t68 -47t35.5 -68q-8 1 -18 1q-44 0 -81 -20t-58 -54t-21 -75
q0 -20 6 -39q-9 -1 -18 -1zM760 262.5q-18 -27.5 -48 -50.5l14 -47l-51 28q-39 -9 -57 -9q-44 0 -81 18t-58 49.5t-21 68.5t21 68.5t58 50t81 18.5q42 0 79 -18.5t59 -50t22 -68.5q0 -30 -18 -57.5z" />
    <glyph glyph-name="uniE643" unicode="&#xe643;" 
d="M619 391q57 29 91.5 84.5t34.5 122.5q0 96 -68 164.5t-165 68.5t-165 -68.5t-68 -164.5q0 -67 34.5 -122.5t91.5 -84.5q-148 -37 -244 -157.5t-96 -276.5q0 -8 6 -14t14 -6t13.5 6t5.5 14q0 111 54.5 204.5t148.5 148.5t205 55t205 -55t148.5 -148.5t54.5 -204.5
q0 -8 5.5 -14t13.5 -6t14 6t6 14q0 156 -96 276.5t-244 157.5zM318 598q0 80 57 137t137 57t137 -57t57 -137.5t-57 -137.5t-137 -57t-137 57t-57 138zM318 598z" />
    <glyph glyph-name="uniE644" unicode="&#xe644;" 
d="M512 351q-102 0 -174 70.5t-72 169.5t72 169.5t174 70.5t174 -70.5t72 -169.5t-72 -169.5t-174 -70.5zM86 -63q-8 0 -13.5 5.5t-5.5 12.5q0 89 35.5 169t95 138.5t142 92.5t172.5 34t172.5 -34t142 -92.5t95 -138.5t35.5 -169q0 -7 -5.5 -12.5t-13.5 -5.5h-852z" />
    <glyph glyph-name="uniE645" unicode="&#xe645;" 
d="M847 786h-156v-45h134q9 0 15.5 -6.5t6.5 -15.5v-514h-179q-18 0 -31 -13t-13 -31v-179h-425q-9 0 -15.5 6.5t-6.5 15.5v715q0 9 6.5 15.5t15.5 6.5h134v45h-156q-19 0 -32 -13t-13 -32v-759q0 -19 13 -32t32 -13h507l50 50q48 44 96 94l62 62v62v536q0 19 -13 32t-32 13
zM668 -18v156q0 10 6.5 16.5t16.5 6.5h156zM735 362h-446v-45h446v45zM735 518h-446v-45h446v45zM289 161h248v44h-248v-44zM289 662v-22q0 -14 9 -23.5t23 -9.5h382q13 0 22.5 9.5t9.5 23.5v22q0 14 -10 24.5t-24 10.5h-55v67q0 27 -19.5 47t-47.5 20h-134q-28 0 -47.5 -20
t-19.5 -47v-67h-55q-14 0 -24 -10.5t-10 -24.5zM512 786q19 0 32 -13t13 -31.5t-13 -31.5t-32 -13t-32 13t-13 31.5t13 31.5t32 13zM512 786z" />
    <glyph glyph-name="uniE646" unicode="&#xe646;" 
d="M557 -61h-1q-24 -2 -44 -2v0v0q-97 0 -179 24.5t-130 65.5t-48 89q0 52 70 98l29 -27q-59 -37 -59 -71q0 -51 79 -90t194 -46q24 -2 44 -2t44 2q115 7 194 46t79 90q0 34 -58 70l29 28q69 -46 69 -98q0 -67 -90.5 -118t-221.5 -59v0zM512 78l-13 12q-16 16 -41 42.5
t-75 83t-92 119t-60 111.5q-16 46 -16 95q0 120 87 205t210 85t210 -85t87 -205q0 -24 -7 -68l-1 -3l-8 -24q-30 -85 -137 -214l-8 -9q-5 -5 -97 -106zM512 794q-108 0 -184.5 -74t-76.5 -179q0 -43 15 -83q14 -40 47 -91t75 -100t70 -80.5t54 -57.5l12 13q90 98 96 105l8 9
q102 123 130 202l8 23q7 41 7 60q0 105 -76.5 179t-184.5 74zM513.5 414q-56.5 0 -96.5 40.5t-40 97t40 96.5t96.5 40t97 -40t40.5 -96.5t-40.5 -97t-97 -40.5zM513.5 652q-41.5 0 -71 -29.5t-29.5 -71t29.5 -71t71 -29.5t71 29.5t29.5 71t-29.5 71t-71 29.5z" />
    <glyph glyph-name="uniE647" unicode="&#xe647;" 
d="M557 -61v0q-24 -2 -45 -2v0v0q-99 0 -183 25t-132.5 67t-48.5 90q0 54 71 101l29 -28q-60 -37 -60 -73q0 -51 81 -91t198 -47q25 -2 45 -2t45 2q117 7 198 47t81 91q0 35 -60 72l30 29q70 -47 70 -101q0 -68 -92 -120t-226 -60h-1zM797 554q0 114 -83.5 195.5
t-201.5 81.5t-201.5 -81.5t-83.5 -195.5q0 -47 16 -91q17 -48 59.5 -110.5t92.5 -119.5t76 -84t41 -42l26 26q92 101 98 108l8 9q107 129 137 213l7 24q9 33 9 67zM514 443q-50 0 -85.5 35.5t-35.5 85.5t35.5 85.5t85.5 35.5t85.5 -35.5t35.5 -85.5t-35.5 -85.5t-85.5 -35.5
zM514 443z" />
    <glyph glyph-name="uniE648" unicode="&#xe648;" 
d="M480.5 119q-7.5 0 -13.5 6l-206 207q-6 5 -6 12.5t6 13.5l434 434q31 31 76 31q52 0 91 -39l58 -58q36 -36 39 -84q2 -50 -31 -83l-434 -434q-6 -6 -13.5 -6zM300 345l181 -181l420 421q22 22 20 55q-1 34 -27 60l-58 58q-28 28 -65 28q-30 0 -50 -20zM667 712l181 -181
l-26 -27l-181 182zM239 57q-20 0 -34 14q-20 19 -12 46l63 233q3 10 13.5 12.5t17.5 -4.5l205 -205q8 -8 5 -18t-13 -13l-233 -64q-6 -1 -12 -1zM283 309l-55 -202q-1 -6 3.5 -10t10.5 -3l201 55zM843 -55h-728q-21 0 -35.5 14.5t-14.5 35.5v698q0 21 14.5 35.5t35.5 14.5
h388q8 0 13.5 -5.5t5.5 -13t-5.5 -13t-13.5 -5.5h-388q-5 0 -8.5 -3.5t-3.5 -9.5v-698q0 -5 3.5 -9t8.5 -4h728q5 0 8.5 4t3.5 9v388q0 8 5.5 13.5t13.5 5.5t13 -5.5t5 -13.5v-388q0 -21 -14.5 -35.5t-34.5 -14.5z" />
    <glyph glyph-name="uniE649" unicode="&#xe649;" 
d="M208 648q0 8 -6 14t-14 6h-21q-8 0 -14 -6t-6 -14v-568q0 -9 6 -15t14 -6h21q8 0 14 6t6 15v568zM727 715l8 -11v127h-40v-128l17 12q3 3 7.5 3t7.5 -3zM610 342l-34 11l27 23q24 21 24 53q0 28 -20.5 48.5t-49 20.5t-49 -20.5t-20.5 -48.5q0 -32 24 -53l27 -23l-34 -11
q-39 -12 -61.5 -38t-22.5 -56q0 -22 44 -34.5t92 -12.5q49 0 93.5 12.5t44.5 34.5q0 30 -23 56t-62 38zM806 831h-50v-149q0 -1 0.5 -3.5t0 -4t-1.5 -1.5q-4 -2 -9 1l-22 20l-23 -21q-3 -2 -7 -2q-7 0 -9 1q-10 4 -10 9v150h-397q-33 0 -61.5 -28t-28.5 -61v-53h19
q21 0 21 -39v-589q0 -13 -4 -17.5t-17 -4.5h-19v-28q0 -32 27.5 -52.5t62.5 -20.5h528q34 0 53 19.5t19 53.5v731q0 35 -20 62t-52 27zM558 181h-1q-8 0 -19.5 0.5t-38 4t-46.5 10t-36.5 20t-16.5 32.5q0 38 27.5 69.5t71.5 45.5q-31 27 -31 67q0 37 26 63t63.5 26t63.5 -27
t26 -64q0 -42 -30 -69q44 -14 71 -43.5t27 -67.5q0 -19 -16.5 -32.5t-36.5 -20t-46.5 -10t-38 -4t-19.5 -0.5z" />
    <glyph glyph-name="uniE64A" unicode="&#xe64a;" 
d="M920 448h-343v344q0 16 -11.5 27.5t-27.5 11.5h-49q-17 0 -28 -11.5t-11 -27.5v-344h-346q-16 0 -27.5 -11.5t-11.5 -27.5v-50q0 -16 11.5 -27.5t27.5 -11.5h346v-344q0 -16 11 -27.5t28 -11.5h49q16 0 27.5 11.5t11.5 27.5v344h343q16 0 27.5 11.5t11.5 27.5v50
q0 16 -11.5 27.5t-27.5 11.5z" />
    <glyph glyph-name="uniE64B" unicode="&#xe64b;" 
d="M104 464q-16 0 -27.5 -14.5t-11.5 -34.5v-62q0 -20 11.5 -34.5t27.5 -14.5h816q16 0 27.5 14.5t11.5 34.5v62q0 20 -11.5 34.5t-27.5 14.5h-816zM104 464z" />
    <glyph glyph-name="uniE64C" unicode="&#xe64c;" 
d="M958 646q0 36 -25.5 61.5t-61.5 25.5h-719q-36 0 -61.5 -25.5t-25.5 -61.5v-523q0 -36 25.5 -61.5t61.5 -25.5h719q36 0 61.5 25.5t25.5 61.5v523zM501 438q0 -22 -16 -38t-39 -16h-196q-22 0 -38 16t-16 38v109q0 23 16 39t38 16h196q23 0 39 -16t16 -39v-109zM817 166
h-588q-5 0 -8 3t-3 8t3 8t8 3h588q4 0 7.5 -3t3.5 -8t-3.5 -8t-7.5 -3zM817 275h-588q-5 0 -8 3t-3 7.5t3 8t8 3.5h588q4 0 7.5 -3.5t3.5 -8t-3.5 -7.5t-7.5 -3zM817 428h-218q-5 0 -8 3t-3 7.5t3 7.5t8 3h218q4 0 7.5 -3t3.5 -7.5t-3.5 -7.5t-7.5 -3zM817 559h-218
q-5 0 -8 3t-3 7.5t3 7.5t8 3h218q4 0 7.5 -3t3.5 -7.5t-3.5 -7.5t-7.5 -3zM479 548q0 13 -9.5 22.5t-22.5 9.5h-197q-13 0 -23 -9.5t-10 -22.5v-109q0 -14 10 -23.5t23 -9.5h197q13 0 22.5 9.5t9.5 23.5v109z" />
    <glyph glyph-name="uniE64D" unicode="&#xe64d;" 
d="M934 682h-174v124q0 10 -7 17.5t-18 7.5h-446q-11 0 -18 -7.5t-7 -17.5v-124h-174q-10 0 -17.5 -7.5t-7.5 -17.5t7.5 -17.5t17.5 -7.5h844q10 0 17.5 7.5t7.5 17.5t-7.5 17.5t-17.5 7.5zM313 781h398v-99h-398v99zM313 781zM810 533q-10 0 -17.5 -7.5t-7.5 -17.5v-521
h-546v521q0 10 -7.5 17.5t-17.5 7.5t-17.5 -7.5t-7.5 -17.5v-546q0 -10 7.5 -17.5t17.5 -7.5h596q10 0 17.5 7.5t7.5 17.5v546q0 10 -7.5 17.5t-17.5 7.5zM810 533zM438 111v397q0 10 -7.5 17.5t-18 7.5t-17.5 -7.5t-7 -17.5v-397q0 -10 7 -17.5t17.5 -7.5t18 7.5t7.5 17.5z
M438 111zM636 111v397q0 10 -7 17.5t-17.5 7.5t-18 -7.5t-7.5 -17.5v-397q0 -10 7.5 -17.5t18 -7.5t17.5 7.5t7 17.5zM636 111z" />
    <glyph glyph-name="uniE64E" unicode="&#xe64e;" 
d="M406 277q-15 -9 -27 -10t-18 2.5t-10 9.5t-5 10l-2 4l-67 157q-16 49 3 45q9 -2 20 -11q41 -31 72 -50q14 -9 31 -10.5t27 1.5l9 3l439 203q-62 77 -158.5 122t-207.5 45q-121 0 -224 -52.5t-163 -143t-60 -196.5q0 -92 45.5 -172.5t124.5 -135.5l-19 -107q0 -1 -0.5 -3
t-0.5 -7t2 -7t7 -3.5t14 3.5q26 12 109 67q79 -28 165 -28q121 0 224 52.5t163 143t60 197.5q0 92 -47 174q-460 -278 -506 -303zM406 277z" />
    <glyph glyph-name="uniE64F" unicode="&#xe64f;" 
d="M512 810q44 0 85 -17q38 -16 68.5 -46t46.5 -69q17 -41 17 -85q0 -48 -20 -91q-19 -42 -54 -72l-28 -24l35 -11q55 -17 100 -46q46 -28 78 -65q68 -77 68 -170q0 -49 -53 -84q-47 -31 -132 -50q-101 -22 -210 -22h-2q-109 0 -210 22q-85 19 -132 50q-53 35 -53 84
q0 93 68 170q32 37 78 65q45 29 100 46l35 11l-28 24q-35 30 -54 72q-20 43 -20 91q0 44 17 85q16 39 46.5 69t68.5 46q41 17 85 17zM512 831q-98 0 -168 -69.5t-70 -168.5q0 -52 22 -98.5t60 -80.5q-116 -36 -188.5 -117.5t-72.5 -182.5q0 -36 23 -65t56 -46.5t79.5 -31
t85.5 -19.5t82 -10t60.5 -4.5t29.5 -0.5h1h1q12 0 29.5 0.5t60.5 4.5t82 10t85.5 19.5t79.5 31t56 46.5t23 65q0 101 -72.5 182.5t-188.5 117.5q38 34 60 80.5t22 98.5q0 99 -70 168.5t-168 69.5z" />
    <glyph glyph-name="uniE650" unicode="&#xe650;" 
d="M511.5 788q82.5 0 141 -58t58.5 -141q0 -90 -68 -150l-56 -49l71 -23q108 -34 171.5 -103.5t63.5 -156.5q0 -35 -37.5 -62.5t-98 -42t-122.5 -21.5t-122 -7h-2q-60 0 -122 7t-122.5 21.5t-98 42t-37.5 62.5q0 87 63.5 158t171.5 105l71 21l-56 49q-68 59 -68 149
q0 83 58 141t140.5 58zM512 830q-100 0 -170.5 -70.5t-70.5 -170.5q0 -53 22 -100.5t60 -81.5q-119 -37 -191.5 -116.5t-72.5 -180.5q0 -29 14.5 -53t35.5 -40.5t55.5 -30t63.5 -21.5t70 -14t64.5 -8.5t58.5 -3.5t41 -1h19h1h1h19q6 0 41 1t58.5 3.5t64.5 8.5t70 14
t63.5 21.5t55.5 30t35.5 40.5t14.5 53q0 101 -73 182.5t-191 118.5q82 72 82 180q0 100 -70.5 169.5t-170.5 69.5z" />
    <glyph glyph-name="uniE651" unicode="&#xe651;" 
d="M691 811q0 8 -5.5 14t-14.5 6h-317q-8 0 -14 -6t-6 -14v-79q0 -8 6 -14t14 -6h317q9 0 14.5 6t5.5 14v79zM601 772h-158q-10 0 -10 9.5t10 9.5h158q10 0 10 -9.5t-10 -9.5zM800 772h-89v-48q0 -17 -7 -24.5t-23 -7.5h-318q-19 0 -34 8.5t-15 23.5v48h-70q-33 0 -61 -27.5
t-28 -60.5v-675q0 -31 27 -51t62 -20h556q33 0 51 19t18 52v675q0 35 -19 61.5t-50 26.5zM423 156h-119q-5 0 -7.5 3t-2.5 7t2.5 7t7.5 3h119q4 0 7 -3t3 -7t-3 -7t-7 -3zM601 275h-297q-10 0 -10 10t10 10h297q10 0 10 -10t-10 -10zM740 394h-436q-5 0 -7.5 3t-2.5 7t2.5 7
t7.5 3h436q4 0 7 -3t3 -7t-3 -7t-7 -3zM740 514h-436q-10 0 -10 9.5t10 9.5h436q10 0 10 -9.5t-10 -9.5z" />
    <glyph glyph-name="uniE652" unicode="&#xe652;" 
d="M668 414q38 34 60 80.5t22 98.5q0 99 -70 168.5t-168 69.5t-168 -69.5t-70 -168.5q0 -52 22 -98.5t60 -80.5q-116 -36 -188.5 -117.5t-72.5 -182.5q0 -29 15 -53t37.5 -41t56 -31t65 -22.5t70 -14.5t65 -8.5t56 -4t38 -2t14.5 -0.5q9 0 24 0.5t58 3.5t82.5 9t87.5 19.5
t82.5 31.5t58.5 47.5t24 65.5q0 101 -72.5 182.5t-188.5 117.5z" />
    <glyph glyph-name="uniE653" unicode="&#xe653;" 
d="M512 831q-91 0 -173.5 -35.5t-142.5 -95.5t-95.5 -142.5t-35.5 -173.5t35.5 -173.5t95.5 -142.5t142.5 -95.5t173.5 -35.5t173.5 35.5t142.5 95.5t95.5 142.5t35.5 173.5t-35.5 173.5t-95.5 142.5t-142.5 95.5t-173.5 35.5zM823 473l-349 -310q-16 -15 -38.5 -15
t-39.5 15l-195 176q-18 16 -19 40t15 42t40 19t42 -15l156 -141l310 276q18 17 42 15.5t40 -19.5t15 -42t-19 -41z" />
    <glyph glyph-name="uniE654" unicode="&#xe654;" 
d="M803 831h-582q-65 0 -110.5 -45.5t-45.5 -110.5v-582q0 -65 45.5 -110.5t110.5 -45.5h582q65 0 110.5 45.5t45.5 110.5v582q0 65 -45.5 110.5t-110.5 45.5zM823 496l-349 -311q-16 -15 -38.5 -15t-39.5 15l-195 176q-18 16 -19 40t15 42t40 19.5t42 -14.5l156 -141
l310 276q18 16 42 14.5t40 -19.5t15 -42t-19 -40z" />
    <glyph glyph-name="uniE655" unicode="&#xe655;" 
d="M717 671q0 -4 -1 -5q-52 -94 -156.5 -282t-157.5 -283l-25 -44q-5 -8 -14 -8q-6 0 -66 35q-8 5 -8 14q0 6 22 43q-72 33 -132 86.5t-104 122.5q-10 15 -10 34t10 34q77 118 190 185.5t247 67.5q44 0 90 -8l27 48q5 8 14 8q2 0 8.5 -3t15.5 -7.5t17 -9.5q7 -4 15 -9t10 -6
q8 -5 8 -13zM342 197l39 70q-43 32 -67.5 79.5t-24.5 101.5q0 60 30 112q-114 -58 -190 -176q83 -129 213 -187zM529 558.5q7 6.5 7 16.5t-7 17t-17 7q-62 0 -107 -44.5t-45 -106.5q0 -10 7 -17t17 -7t17 7t7 17q0 43 30.5 73.5t73.5 30.5q10 0 17 6.5zM959 384
q0 -17 -10 -34q-20 -32 -55 -73q-74 -85 -172.5 -132.5t-209.5 -47.5l37 66q106 9 196 68t150 153q-57 89 -141 147l32 55q47 -31 90.5 -75.5t72.5 -92.5q10 -17 10 -34zM735 448q0 -69 -39 -126.5t-104 -82.5l139 251q4 -23 4 -42z" />
    <glyph glyph-name="uniE656" unicode="&#xe656;" 
d="M959 384q0 -17 -10 -34q-70 -115 -188 -184t-249 -69t-249 69t-188 184q-10 17 -10 34t10 34q70 115 188 184t249 69t249 -69t188 -184q10 -17 10 -34zM895 384q-76 118 -190 176q30 -52 30 -112q0 -92 -65.5 -158t-157.5 -66t-157.5 66t-65.5 158q0 60 30 112
q-114 -58 -190 -176q66 -102 166 -162.5t217 -60.5t217 60.5t166 162.5zM529 558.5q7 6.5 7 16.5t-7 17t-17 7q-62 0 -107 -44.5t-45 -106.5q0 -10 7 -17t17 -7t17 7t7 17q0 43 30.5 73.5t73.5 30.5q10 0 17 6.5z" />
    <glyph glyph-name="uniE657" unicode="&#xe657;" 
d="M959 219v440q0 71 -50.5 121.5t-121.5 50.5h-550q-71 0 -121.5 -50.5t-50.5 -121.5v-550q0 -71 50.5 -121.5t121.5 -50.5h550q63 0 110.5 40.5t58.5 101.5q-246 106 -346 154q-63 -76 -129 -114t-155 -38q-91 0 -147 49.5t-49 119.5q2 21 8.5 40.5t23 41.5t41 37
t65.5 22.5t93 2.5q20 -2 37.5 -4t34.5 -5.5t28.5 -6t30 -8.5t26.5 -8.5t30 -10t31 -9.5q31 56 50 121h-347v34h171v62h-209v38h209v89q2 14 18 14h86v-103h223v-38h-223v-62h182q-25 -101 -74 -185q23 -9 96.5 -32t135 -42t62.5 -19v0zM313 140q-46 0 -78.5 13t-46 33
t-18.5 38t-2 33q6 30 37 54.5t81 24.5q114 0 247 -65q-48 -63 -104.5 -97t-115.5 -34v0zM313 140z" />
    <glyph glyph-name="uniE658" unicode="&#xe658;" 
d="M213 458h156v-28h-156v28zM213 546v-25h156v27h-150q-1 0 -3 -1q-2 0 -3 -1zM65 831v-894l894 894h-894zM176 636q16 17 31 44l18 -10q-18 -30 -31.5 -45t-41.5 -36q-6 8 -15 16q25 16 39 31zM369 396v17h-156v-17h-21q1 14 1 29v115h-1h-1q-20 -6 -53 -13q-3 8 -10 19
q75 11 143 40v86q0 14 -2 24h24q-2 -10 -2 -24v-76q41 22 55 39l17 -15l-9 -6q-1 -1 -11 -8q-28 -20 -83 -43q18 2 31 2h69q15 0 30 2q-1 -13 -1 -25v-117q0 -14 2 -29h-22zM337 667l13 13q42 -30 78 -68l-17 -15q-36 43 -74 70zM213 504h156v-29h-156v29z" />
    <glyph glyph-name="uniE659" unicode="&#xe659;" 
d="M796 831h-548q-33 0 -63 -23t-30 -54v-734q0 -31 30 -56.5t63 -25.5h409l212 232v14v85v485q0 32 -21 54.5t-52 22.5zM304 672h436q4 0 7 -3t3 -7t-3 -7t-7 -3h-436q-5 0 -7.5 3t-2.5 7t2.5 7t7.5 3zM423 176h-119q-10 0 -10 9.5t10 9.5h119q10 0 10 -9.5t-10 -9.5z
M423 295h-119q-5 0 -7.5 3t-2.5 7t2.5 7t7.5 3h119q4 0 7 -3t3 -7t-3 -7t-7 -3zM604 414h-303q-7 0 -7 10t7 10h303q7 0 7 -10t-7 -10zM304 533q-10 0 -10 10t10 10h436q10 0 10 -10t-10 -10h-436zM811 134l-125 -133q-3 -3 -7 -3q-2 0 -4 1q-6 2 -6 9l-2 106q0 16 11 26
q11 9 27 9l98 2q7 -1 10 -6q2 -6 -2 -11zM691 125q-4 -4 -4 -11l1 -81l92 98l-75 -2q-8 0 -14 -4z" />
    <glyph glyph-name="uniE65A" unicode="&#xe65a;" 
d="M155 831q-14 0 -25.5 -10t-11.5 -22v-830q0 -12 11.5 -22t25 -10t25 10t11.5 22v830q0 13 -11.5 22.5t-24.5 9.5v0zM706 764q-53 0 -94.5 10t-65 22.5t-65 22.5t-94.5 10q-41 0 -82 -10.5t-61 -21.5l-21 -11v-480q8 4 22.5 11t57.5 19t84 12q53 0 94.5 -10t65 -22
t65 -22.5t94.5 -10.5q45 0 95 13t78 26l27 13v481q-11 -6 -30.5 -14.5t-72.5 -23t-97 -14.5v0zM706 764z" />
    <glyph glyph-name="uniE65B" unicode="&#xe65b;" 
d="M211 56q72 0 129 64q8 9 20 9t20 -9q60 -64 128 -64t128 65q8 9 20 9t20 -9q59 -65 128 -65l89 288q3 7 0 30q0 7 -5 13q-4 6 -16 12l-52 22q-16 8 -16 25v186q0 38 -22 63.5t-54 25.5h-89q-9 0 -16.5 5.5t-9.5 14.5l-16 69q-2 9 -9.5 15t-16.5 6h-123q-21 0 -26 -20
l-19 -70q-5 -20 -26 -20h-89q-32 0 -54.5 -27t-22.5 -62v-185q0 -18 -17 -25l-49 -18l-4 -2q-10 -6 -16 -16q-2 -3 -4 -7q-4 -15 1 -31zM288 632h413q11 0 19 -8t8 -19v-108q0 -14 -11.5 -22t-25.5 -3l-174 67q-9 4 -19 0l-174 -67q-13 -5 -24.5 3t-11.5 22v135zM660 56
q-68 -54 -142 -55t-143 48q-16 11 -31 0q-32 -23 -65.5 -44t-86 -44.5t-87.5 -23.5h43q38 0 94.5 14.5t96.5 34.5q12 6 25 0q70 -38 148 -38t148 38q13 6 25 0q40 -20 96.5 -34.5t94.5 -14.5h43q-42 -1 -106.5 29t-108.5 59t-44 31v0zM660 56z" />
    <glyph glyph-name="uniE65C" unicode="&#xe65c;" 
d="M487 552q-4 -1 -10 -1q-14 0 -31.5 7.5t-29.5 18.5q-17 16 -17 34q0 8 4 12q5 5 16 5q22 0 41 -18q15 -14 22 -33t5 -25zM625 611q0 8 -4 12q-5 5 -16 5q-22 0 -41 -18q-15 -14 -22 -33t-4 -25h1q1 -1 3 -1h5q14 0 31.5 7.5t29.5 18.5q17 16 17 34zM959 384
q0 -91 -35.5 -173.5t-95.5 -142.5t-142.5 -95.5t-173.5 -35.5t-173.5 35.5t-142.5 95.5t-95.5 142.5t-35.5 173.5t35.5 173.5t95.5 142.5t142.5 95.5t173.5 35.5t173.5 -35.5t142.5 -95.5t95.5 -142.5t35.5 -173.5zM494 337h-195v-125q0 -14 10.5 -24.5t24.5 -10.5h160v160z
M725 337h-195v-160h160q14 0 24.5 10.5t10.5 24.5v125zM725 497q0 14 -10.5 24.5t-24.5 10.5h-83q15 8 25 18q25 23 29 52t-15 47q-16 15 -41 15q-36 0 -66 -27q-16 -16 -27 -38q-11 22 -27 38q-30 27 -66 27q-25 0 -41 -15q-19 -18 -15 -47t29 -52q10 -10 25 -18h-83
q-14 0 -24.5 -10.5t-10.5 -24.5v-125h195v145q10 2 17 9h1h1q7 -7 17 -9v-145h195v125z" />
    <glyph glyph-name="uniE65D" unicode="&#xe65d;" 
d="M558 -61v0q-25 -2 -46 -2v0v0q-99 0 -183.5 25t-133 67t-48.5 91q0 54 71 101l29 -28q-60 -37 -60 -73q0 -51 81 -91.5t199 -47.5q25 -2 45 -2t46 2q117 7 198 47.5t81 91.5q0 35 -60 73l30 28q70 -47 70 -101q0 -68 -92 -120.5t-227 -60.5zM512 140q-10 8 -26.5 21.5
t-58 58t-73.5 91.5t-58.5 117t-26.5 139q0 34 5 66.5t21.5 69.5t42 64t70.5 45.5t104 18.5q243 0 243 -264q0 -50 -13.5 -101t-35 -91.5t-47 -78t-51.5 -65.5t-47.5 -48.5t-34.5 -31.5zM512 774q-47 0 -82.5 -14t-55.5 -35.5t-33 -51.5t-17 -56t-4 -54q0 -157 141 -307
q29 -31 51 -49q8 7 21 18t46 48.5t58.5 76.5t46 97.5t20.5 115.5q0 211 -192 211zM512 506q-34 0 -57.5 23.5t-23.5 57t23.5 57.5t57.5 24t57.5 -24t23.5 -57.5t-23.5 -57t-57.5 -23.5zM512 621q-14 0 -23.5 -10t-9.5 -24t9.5 -23.5t23.5 -9.5t23.5 9.5t9.5 23.5t-9.5 24
t-23.5 10zM512 628z" />
    <glyph glyph-name="uniE65E" unicode="&#xe65e;" 
d="M927 761l-38 38q-31 32 -76 32t-76 -32l-76 -76h-216h-1q-12 0 -20 -8l-125 -125l-202 -202q-32 -32 -32 -76.5t32 -76.5l266 -266q32 -32 76.5 -32t76.5 32l201 201l1 1l123 123q6 6 8 13q1 5 1 10v215q1 0 1 1l76 76q32 31 32 76t-32 76v0zM806 326l-120 -121h-1
l-207 -207q-16 -17 -39 -17t-39 17l-274 274q-17 16 -17 39t17 39l328 329h182q-12 -59 30 -101l40 -40q42 -42 100 -30v-182zM897 650l-79 -79q-17 -16 -40 -16t-39 16l-40 40q-16 16 -16 39t16 40l79 79q16 16 39.5 16t39.5 -16l40 -40q16 -16 16 -39t-16 -40v0zM650 405
h-118v116q0 10 -7 17t-17 7t-17 -7t-7 -17v-72l-20 20q-7 7 -17 7t-17 -6.5t-7 -16.5t7 -17l50 -50l-43 -44l-51 50q-7 7 -16.5 7t-16.5 -7t-7 -16.5t7 -16.5l50 -50l-53 -54q-7 -7 -7 -16.5t7 -16.5t17 -7t16 7l54 53l50 -50q7 -7 16.5 -7t16.5 7t7 16.5t-7 16.5l-50 51
l44 43l50 -50q7 -7 17 -7t16.5 7t6.5 17t-6 17l-23 22h75q10 0 17 7t7 17t-7 16.5t-17 6.5v0zM715 455z" />
    <glyph glyph-name="uniE65F" unicode="&#xe65f;" 
d="M609.5 513q4.5 -8 0.5 -15l-61 -108l1 -3h46v-36h-64q-2 0 -2 -2v-16q0 -1 2 -1h64v-36h-64q-2 0 -2 -2v-38q0 -8 -5.5 -13.5t-13.5 -5.5h-12q-8 0 -13.5 5.5t-5.5 13.5v38q0 2 -2 2h-64v36h64q2 0 2 1v16q0 2 -2 2h-64v36h46l2 3l-62 108q-4 7 0.5 15t13.5 8h19
q11 0 17 -10l54 -100q0 -1 1 -1t2 1l54 100q5 10 17 10h18q9 0 13.5 -8zM959 384q0 -91 -35.5 -173.5t-95.5 -142.5t-142.5 -95.5t-173.5 -35.5t-173.5 35.5t-142.5 95.5t-95.5 142.5t-35.5 173.5t35.5 173.5t95.5 142.5t142.5 95.5t173.5 35.5t173.5 -35.5t142.5 -95.5
t95.5 -142.5t35.5 -173.5zM695 378.5q0 27.5 18 48t45 23.5q8 1 8 10v89q0 5 -3 8t-7 3h-501q-5 0 -8 -3t-3 -8v-89q0 -9 9 -10q27 -3 45 -23.5t18 -48t-18 -47.5t-45 -23q-9 -1 -9 -10v-89q0 -5 3 -8t8 -3h501q4 0 7 3t3 8v89q0 9 -8 10q-27 3 -45 23t-18 47.5z" />
    <glyph glyph-name="uniE660" unicode="&#xe660;" 
d="M280 766q-103 -63 -160 -167.5t-55 -223.5t65 -222.5t167.5 -160.5t223.5 -55t222.5 65t160.5 167.5t55 223.5t-65 222.5t-167.5 160.5t-223.5 55t-223 -65zM720 37q-94 -57 -202.5 -59t-203.5 49.5t-152.5 146t-59.5 203t50 203.5t146.5 152.5t203 59.5t203.5 -50
t152 -146.5t59 -203t-49.5 -203.5t-146.5 -152zM322 697q-85 -51 -132 -137t-45 -183.5t53.5 -182.5t137.5 -132t183.5 -45t182.5 53.5t132 137.5t45 183.5t-53.5 182.5t-137.5 132t-183.5 45t-182.5 -54zM694 84q-81 -50 -175 -51.5t-176 43t-131.5 126t-51 175.5t43 176
t126 131.5t175.5 51t176 -43t131.5 -126t51 -175.5t-43 -176t-126.5 -131zM389 318l-110 -67l32 -54q7 -11 18 -4l91 55q6 4 8 9q2 8 -15 38l15 4q18 -35 16 -45q-3 -9 -13 -16l-98 -60q-20 -12 -33 9l-57 94l13 8l15 -26l98 59l-28 47l-120 -73l-8 13l133 80zM423 447
q31 -10 63 -24l-3 -14q-33 15 -56 23q1 -36 -5 -71l-14 6q7 33 5 74zM434 347l64 39l7 -11q3 -32 0 -60q17 -3 31 -8l-4 -15q-29 11 -70 17l4 13q12 -2 26 -4q2 20 0 47l-50 -30zM441 404q20 -8 34 -16l-5 -12q-14 8 -35 17zM458 460l85 51l7 -12l-35 -21q5 -12 8 -22l34 20
l51 -84l-13 -8l-44 73l-46 -28l45 -74l-13 -8l-52 86l26 15q-4 11 -9 22l-36 -22zM529 427l12 8l19 -31q16 -29 16 -53q0 -22 -18 -45l-13 7q17 22 17 41q-1 19 -14 43zM586 378q26 -4 49 -13l-3 -14q-20 8 -50 13zM562 524l86 52l7 -13l-14 -8l60 -100l15 14l7 -12l-14 -15
l20 -32l-13 -8l-18 30q-24 -23 -50 -45l-11 11l14 11l-68 111l-13 -8zM613 500l32 19l-17 28l-32 -20zM636 461l33 19l-17 28l-32 -20zM662 418q15 14 29 26l-15 25l-33 -20zM668 558l-6 -4l-8 12l68 42l7 -12q25 -53 28 -100q26 -14 56 -21l-3 -15q-28 8 -53 20
q0 -31 -11 -59l-15 4q11 31 11 64q-43 26 -74 69zM680 565q27 -37 61 -60q-4 40 -23 83z" />
    <glyph glyph-name="uniE661" unicode="&#xe661;" 
d="M927 761l-38 38q-32 31 -76.5 31.5t-75.5 -30.5l-77 -76h-215h-1q-11 0 -20 -8l-125 -126v-1l-202 -201q-31 -32 -31 -76.5t31 -76.5l267 -266q31 -32 75.5 -32t76.5 32l201 201l1 1l123 123q5 5 7 13q2 4 2 10v215h1l76 76q31 32 31 76.5t-31 76.5zM650 358h-75l18 -18
q20 -20 4 -36q-7 -7 -16.5 -7.5t-16.5 6.5l-50 50l-44 -44l50 -51q7 -7 7 -16.5t-7 -16.5t-16.5 -7t-16.5 7l-50 50l-53 -53q-7 -7 -17 -7t-17 7t-7 16.5t7 16.5l53 53l-50 50q-7 7 -7 17t7 17t17 7t16 -7l51 -50l43 44l-50 50q-7 7 -7 16.5t7 16.5t16.5 7t16.5 -6l21 -21
l1 72q0 10 7 17t16.5 7t16.5 -7.5t7 -17.5v-114l118 -1q10 0 17 -7t7 -17t-7 -16.5t-17 -6.5zM896 650l-79 -79q-16 -16 -39 -16t-39 16l-40 39q-16 17 -16 40t16 39l79 79q16 16 39.5 16t39.5 -16l39 -39q17 -17 17 -40t-17 -39z" />
    <glyph glyph-name="uniE662" unicode="&#xe662;" 
d="M900.5 -63q-24.5 0 -41.5 17l-777 777q-17 17 -17 41.5t17 41.5t41.5 17t41.5 -17l777 -777q17 -17 17 -41.5t-17 -41.5t-41.5 -17zM123.5 -63q-24.5 0 -41.5 17t-17 41.5t17 41.5l777 777q17 17 41.5 17t41.5 -17t17 -41.5t-17 -41.5l-777 -777q-17 -17 -41.5 -17z" />
    <glyph glyph-name="uniE663" unicode="&#xe663;" 
d="M934 483q16 11 20.5 21t4.5 29v149q0 31 -22 52.5t-53 21.5h-744q-31 0 -53 -21.5t-22 -52.5v-149q0 -20 4.5 -30.5t20.5 -19.5q31 -14 53 -39t22 -60q0 -75 -73 -99q-27 -17 -27 -50v-149q0 -31 22 -52.5t53 -21.5h744q31 0 53 21.5t22 52.5v149q0 20 -5 29.5t-20 20.5
q-41 21 -58 43t-17 56t16.5 55.5t58.5 43.5zM909 244v-133q0 -21 -14.5 -35.5t-35.5 -14.5h-694q-21 0 -35.5 14.5t-14.5 35.5v133q44 16 71.5 54t27.5 86t-27.5 86t-71.5 54v133q0 21 14.5 35.5t35.5 14.5h694q21 0 35.5 -14.5t14.5 -35.5v-133q-44 -16 -71.5 -54
t-27.5 -86t27.5 -86t71.5 -54zM648 434h-93l102 109q7 9 0 17l-16 18q-8 8 -16 0l-113 -121l-113 121q-8 8 -16 0l-16 -18q-7 -8 0 -17l102 -109h-93q-6 0 -9.5 -4t-3.5 -9v-25q0 -5 3.5 -8.5t9.5 -3.5h111v-50h-111q-6 0 -9.5 -3.5t-3.5 -8.5v-25q0 -5 3.5 -8.5t9.5 -3.5
h111v-87q0 -5 3.5 -9t9.5 -4h24q6 0 9.5 4t3.5 9v87h111q6 0 9.5 3.5t3.5 8.5v25q0 5 -3.5 8.5t-9.5 3.5h-111v50h111q6 0 9.5 3.5t3.5 8.5v25q0 5 -3.5 9t-9.5 4zM648 434z" />
    <glyph glyph-name="uniE664" unicode="&#xe664;" 
d="M871 375.5q0 36.5 26.5 64.5t60.5 32v192q0 27 -23.5 48t-52.5 21h-621v-162q0 -4 -3 -7.5t-7.5 -3.5t-8 3.5t-3.5 7.5v162h-8h-107q-27 0 -43 -20t-16 -49v-192q34 -4 60.5 -32t26.5 -64.5t-26.5 -64.5t-60.5 -33v-179q0 -28 16 -45.5t43 -17.5h115v143q0 4 3.5 7.5
t8 3.5t7.5 -3.5t3 -7.5v-143h621q30 0 53 18.5t23 44.5v179q-34 5 -60.5 33t-26.5 64.5zM261 310q0 -5 -3 -8t-7.5 -3t-8 3t-3.5 8v152q0 5 3.5 8t8 3t7.5 -3t3 -8v-152zM566 373v-55h120q5 0 8 -3t3 -7.5t-3 -7.5t-8 -3h-120v-140q0 -5 -3 -8t-7.5 -3t-8 3t-3.5 8v140h-141
q-5 0 -8 3t-3 7.5t3 7.5t8 3h141v66h-141q-5 0 -8 3t-3 8t3 8t8 3h119l-92 127q-5 8 3 13q8 6 15 -4l99 -143l94 143q6 9 15 3q7 -4 3 -10l-87 -129h114q5 0 8 -3t3 -8t-3 -8t-8 -3h-128q-1 0 1.5 -2.5t4.5 -5t2 -3.5z" />
    <glyph glyph-name="uniE665" unicode="&#xe665;" 
d="M72 451l4 22h70q-7 14 -15 27l29 5q3 -3 6 -11q8 -14 11 -19l-7 -2h47l4 4q16 18 23 28l29 -6q-3 -3 -9 -10q-3 -4 -16 -16h70l-4 -22h-112l-10 -24h93l-29 -155h-27l2 5h-136l-3 -14h-27l29 164h70l8 24h-100zM102 320l-4 -24h136l4 24h-136zM110 363l-4 -23h136l4 23
h-136zM118 406l-4 -23h136l4 23h-136zM319 383q0 15 -1 29q37 43 60 92l23 -6q-12 -23 -27 -46l-26 -147h-22l19 107q-13 -15 -26 -29zM387 438l3 22h86l8 42h23l-7 -42h26l-4 -22h-26l-18 -100q-4 -31 -35 -30q-10 -1 -34 -1q0 12 -1 22h15h14q17 -1 19 15l16 94h-85z
M415 361q-13 25 -28 48l19 12q17 -23 30 -46zM551 410l13 75h23l-10 -53h47l12 71h25l-13 -71h47l9 53h23l-13 -75h-70l-13 -75h54l10 54h22l-14 -82h-23l2 9h-155l13 73h22l-9 -54h54l13 75h-69zM749 307l-19 6q20 43 31 74q1 0 3 -1q4 -1 17 -5q-3 -6 -8 -18
q-17 -39 -24 -56zM771 406q-3 3 -10 12l-14 14l17 15q17 -17 24 -25zM785 462q-11 13 -22 25l17 15q12 -13 23 -25zM796 451l4 19h30q0 5 -2 16q0 10 -1 15l21 3q0 -4 1 -12q1 -14 2 -22h20l-4 -18q19 23 34 53l21 -3q-2 -3 -6 -10l-7 -14h50l-4 -19h-59q-2 -5 -10 -13
q-2 -4 -3 -5h62l-3 -20l-28 -25l-1 -6h30l-3 -19h-30l-7 -39q-3 -22 -28 -23q-8 -1 -23 -1v1q0 1 1 2q0 6 -1 17q11 -1 18 -1q13 0 14 10l6 34h-33l4 19h32l2 11l25 21h-45l2 11l-5 -5q-4 6 -13 14q4 5 7 9h-37l-6 -29h37q-6 -34 -17 -87q-5 -24 -28 -24q-8 -1 -16 -1l-1 19
h13q12 -1 14 11q8 37 13 63h-19l-1 -2q-12 -62 -40 -96q-2 2 -6 7q-5 4 -7 6q24 29 35 84q5 21 10 49h-14zM75 296l814 -4l49 41l-42 -62q-681 -4 -827 -8z" />
    <glyph glyph-name="uniE666" unicode="&#xe666;" 
d="M558 -61v0q-25 -2 -46 -2v0v0q-99 0 -183.5 25t-133 67t-48.5 91q0 54 71 101l29 -28q-60 -37 -60 -73q0 -51 81 -91.5t199 -47.5q25 -2 45 -2t46 2q117 7 198 47.5t81 91.5q0 35 -60 73l30 28q70 -47 70 -101q0 -68 -92 -120.5t-227 -60.5zM512 140q-10 8 -26.5 21.5
t-58 58t-73.5 91.5t-58.5 117t-26.5 139q0 34 5 66.5t21.5 69.5t42 64t70.5 45.5t104 18.5q243 0 243 -264q0 -50 -13.5 -101t-35 -91.5t-47 -78t-51.5 -65.5t-47.5 -48.5t-34.5 -31.5zM512 668q-34 0 -57.5 -24t-23.5 -57.5t23.5 -57t57.5 -23.5t57.5 23.5t23.5 57
t-23.5 57.5t-57.5 24zM512 668z" />
  </font>
</defs>
</svg>
